<svg width="92" height="20" viewBox="0 0 92 20" fill="none" xmlns="http://www.w3.org/2000/svg">
<path d="M3.85161 19.3555H0.939675L10.5011 1.17365H13.6705L17.195 19.3555H14.2831L11.6286 4.47621H11.4866L3.85161 19.3555ZM5.52064 12.2354H14.9667L14.576 14.5437H5.13002L5.52064 12.2354ZM71.1665 1.17365L68.148 19.3555H65.6267L58.6044 6.02095H58.4446L56.2162 19.3555H53.473L56.4914 1.17365H59.0305L66.0617 14.5259H66.2304L68.4499 1.17365H71.1665Z" fill="#4FAA89"/>
<path d="M23.0963 19.6307C21.7705 19.6307 20.6845 19.3318 19.8381 18.734C18.9918 18.1303 18.4029 17.2988 18.0714 16.2393C17.74 15.1799 17.6867 13.9666 17.9116 12.5994C18.1365 11.2145 18.5952 9.99231 19.2877 8.93288C19.9861 7.86754 20.8591 7.03598 21.9066 6.43821C22.9602 5.84044 24.1291 5.54155 25.4134 5.54155C26.4491 5.54155 27.3399 5.7339 28.0856 6.11861C28.8314 6.4974 29.3966 7.03007 29.7813 7.71662C30.166 8.40317 30.3317 9.20514 30.2785 10.1225H27.695C27.6536 9.48331 27.4168 8.93288 26.9848 8.47124C26.5527 8.00959 25.9165 7.77876 25.076 7.77876C24.3362 7.77876 23.6556 7.97408 23.0341 8.3647C22.4127 8.74941 21.8889 9.29983 21.4628 10.016C21.0366 10.7262 20.7466 11.5666 20.5927 12.5373C20.427 13.5316 20.4359 14.3898 20.6194 15.1119C20.8028 15.8339 21.1402 16.3932 21.6314 16.7898C22.1227 17.1863 22.7412 17.3846 23.4869 17.3846C23.9959 17.3846 24.4694 17.2929 24.9074 17.1094C25.3513 16.92 25.7419 16.6507 26.0792 16.3015C26.4225 15.9523 26.6888 15.5321 26.8782 15.0408H29.4706C29.2161 15.9227 28.7899 16.7099 28.1922 17.4023C27.6003 18.0948 26.8723 18.6393 26.0082 19.0359C25.1441 19.4324 24.1735 19.6307 23.0963 19.6307ZM38.2105 5.7191L37.8643 7.84979H30.4158L30.762 5.7191H38.2105ZM33.2922 2.45206H35.9467L33.7983 15.3516C33.7154 15.8665 33.7302 16.2541 33.8426 16.5146C33.9551 16.7691 34.1267 16.9437 34.3576 17.0384C34.5943 17.1271 34.8577 17.1715 35.1477 17.1715C35.3608 17.1715 35.5472 17.1567 35.707 17.1271C35.8668 17.0975 35.994 17.0739 36.0887 17.0561L36.2308 19.2489C36.0532 19.3081 35.8135 19.3673 35.5117 19.4265C35.2157 19.4916 34.8547 19.5271 34.4286 19.533C33.7302 19.5449 33.0999 19.4206 32.5376 19.1602C31.9753 18.8938 31.5551 18.4914 31.2769 17.9528C30.9988 17.4083 30.9307 16.7247 31.0728 15.902L33.2922 2.45206ZM36.8742 19.3555L39.1469 5.7191H41.8014L39.5286 19.3555H36.8742ZM41.029 3.58842C40.5673 3.58842 40.1767 3.43454 39.8571 3.12678C39.5434 2.81309 39.3984 2.44022 39.4221 2.00817C39.4458 1.57019 39.6292 1.19732 39.9725 0.889559C40.3158 0.575875 40.7153 0.419033 41.171 0.419033C41.6327 0.419033 42.0203 0.575875 42.334 0.889559C42.6477 1.19732 42.7957 1.57019 42.7779 2.00817C42.7542 2.44022 42.5708 2.81309 42.2275 3.12678C41.8901 3.43454 41.4906 3.58842 41.029 3.58842ZM55.038 5.7191L47.8203 19.3555H44.9794L42.2983 5.7191H45.0415L46.746 16.2127H46.8881L52.0816 5.7191H55.038ZM75.7783 19.6307C74.4407 19.6307 73.3339 19.3436 72.458 18.7695C71.5879 18.1895 70.9783 17.3757 70.6291 16.3281C70.2799 15.2746 70.2237 14.0406 70.4604 12.6261C70.6913 11.2293 71.1559 9.99822 71.8543 8.93288C72.5527 7.86754 73.4227 7.03598 74.4644 6.43821C75.5119 5.84044 76.669 5.54155 77.9356 5.54155C78.705 5.54155 79.43 5.6688 80.1107 5.9233C80.7972 6.17779 81.3802 6.5773 81.8596 7.1218C82.339 7.66631 82.6704 8.37358 82.8539 9.24361C83.0433 10.1077 83.0374 11.1583 82.8362 12.3952L82.6852 13.3363H71.8365L72.1472 11.3477H80.3859C80.5102 10.6493 80.4776 10.0308 80.2882 9.49219C80.0988 8.94768 79.7733 8.51858 79.3117 8.2049C78.8559 7.89122 78.2818 7.73438 77.5894 7.73438C76.8791 7.73438 76.2162 7.92081 75.6007 8.29368C74.9852 8.66655 74.4703 9.14299 74.056 9.72301C73.6476 10.2971 73.3901 10.889 73.2836 11.4986L72.9729 13.3185C72.819 14.3129 72.8456 15.1119 73.0528 15.7156C73.2658 16.3192 73.6387 16.7572 74.1714 17.0295C74.7041 17.3017 75.3699 17.4379 76.1689 17.4379C76.6838 17.4379 77.1603 17.3668 77.5982 17.2248C78.0421 17.0768 78.4357 16.8608 78.779 16.5767C79.1223 16.2867 79.4093 15.9257 79.6401 15.4936L82.0727 15.9464C81.7471 16.6862 81.2796 17.3343 80.67 17.8906C80.0604 18.4411 79.3412 18.8701 78.5127 19.1779C77.69 19.4798 76.7785 19.6307 75.7783 19.6307ZM91.2965 5.7191L90.9502 7.84979H83.5017L83.848 5.7191H91.2965ZM86.3782 2.45206H89.0326L86.8842 15.3516C86.8013 15.8665 86.8161 16.2541 86.9286 16.5146C87.041 16.7691 87.2127 16.9437 87.4435 17.0384C87.6802 17.1271 87.9436 17.1715 88.2336 17.1715C88.4467 17.1715 88.6331 17.1567 88.7929 17.1271C88.9527 17.0975 89.08 17.0739 89.1747 17.0561L89.3167 19.2489C89.1392 19.3081 88.8995 19.3673 88.5976 19.4265C88.3017 19.4916 87.9407 19.5271 87.5145 19.533C86.8161 19.5449 86.1858 19.4206 85.6235 19.1602C85.0613 18.8938 84.6411 18.4914 84.3629 17.9528C84.0847 17.4083 84.0166 16.7247 84.1587 15.902L86.3782 2.45206Z" fill="#444444"/>
</svg>
