<svg width="46" height="51" viewBox="0 0 46 51" fill="none" xmlns="http://www.w3.org/2000/svg">
<path d="M2.76032 50.5C2.2257 50.4921 1.71494 50.2502 1.33687 49.8256C0.958803 49.4011 0.743318 48.8276 0.736328 48.2273V2.77273C0.736328 2.16996 0.949569 1.59189 1.32914 1.16567C1.70871 0.739447 2.22352 0.5 2.76032 0.5C3.29711 0.5 3.81192 0.739447 4.1915 1.16567C4.57107 1.59189 4.78431 2.16996 4.78431 2.77273V48.2273C4.77732 48.8276 4.56183 49.4011 4.18377 49.8256C3.8057 50.2502 3.29494 50.4921 2.76032 50.5Z" fill="#279472"/>
<path d="M43.2401 50.4999H2.76032C2.22352 50.4999 1.70871 50.2605 1.32914 49.8342C0.949569 49.408 0.736328 48.8299 0.736328 48.2272C0.736328 47.6244 0.949569 47.0463 1.32914 46.6201C1.70871 46.1939 2.22352 45.9545 2.76032 45.9545H43.2401C43.7769 45.9545 44.2917 46.1939 44.6713 46.6201C45.0509 47.0463 45.2641 47.6244 45.2641 48.2272C45.2641 48.8299 45.0509 49.408 44.6713 49.8342C44.2917 50.2605 43.7769 50.4999 43.2401 50.4999ZM28.3975 33.8332C28.1316 33.8347 27.8681 33.7764 27.6225 33.6619C27.3769 33.5474 27.1541 33.379 26.9672 33.1666L20.3016 25.6817L13.6359 33.1666C13.2522 33.568 12.7447 33.7866 12.2204 33.7762C11.696 33.7658 11.1957 33.5273 10.8249 33.1109C10.4541 32.6945 10.2417 32.1327 10.2324 31.5439C10.2232 30.9551 10.4178 30.3853 10.7753 29.9545L18.8713 20.8635C19.2508 20.4379 19.7652 20.1989 20.3016 20.1989C20.8379 20.1989 21.3524 20.4379 21.7319 20.8635L28.3975 28.3484L37.7619 17.8332C38.1455 17.4318 38.653 17.2132 39.1774 17.2236C39.7017 17.234 40.202 17.4725 40.5728 17.8889C40.9437 18.3053 41.1561 18.8671 41.1653 19.4559C41.1746 20.0447 40.9799 20.6145 40.6224 21.0454L29.8278 33.1666C29.6409 33.379 29.4182 33.5474 29.1726 33.6619C28.927 33.7764 28.6635 33.8347 28.3975 33.8332Z" fill="#279472"/>
<path d="M40.5415 31.0757C40.0069 31.0679 39.4962 30.8259 39.1181 30.4014C38.74 29.9769 38.5245 29.4033 38.5176 28.803V20.1969H31.0963C30.5595 20.1969 30.0447 19.9575 29.6651 19.5313C29.2855 19.1051 29.0723 18.527 29.0723 17.9242C29.0723 17.3215 29.2855 16.7434 29.6651 16.3172C30.0447 15.8909 30.5595 15.6515 31.0963 15.6515H40.5415C41.0762 15.6593 41.5869 15.9013 41.965 16.3258C42.3431 16.7504 42.5585 17.3239 42.5655 17.9242V28.803C42.5585 29.4033 42.3431 29.9769 41.965 30.4014C41.5869 30.8259 41.0762 31.0679 40.5415 31.0757Z" fill="#279472"/>
</svg>
