<svg width="46" height="51" viewBox="0 0 46 51" fill="none" xmlns="http://www.w3.org/2000/svg">
<path d="M39.4677 25.1283H38.5027C38.5027 24.5882 38.408 24.0534 38.2239 23.5544C38.0399 23.0554 37.7701 22.602 37.43 22.2201C37.0898 21.8382 36.6861 21.5352 36.2417 21.3285C35.7973 21.1219 35.321 21.0155 34.84 21.0155C34.5289 21.0155 34.2209 20.9467 33.9335 20.813C33.6461 20.6793 33.385 20.4834 33.1651 20.2364C32.9451 19.9894 32.7706 19.6962 32.6516 19.3735C32.5326 19.0508 32.4713 18.7049 32.4713 18.3556V16.8484C32.4585 13.8367 32.8648 10.8413 33.6756 7.97047C33.8194 7.4686 33.882 6.94188 33.8603 6.41524C33.7839 5.34051 33.3734 4.33017 32.7006 3.561C32.0278 2.79182 31.1356 2.3128 30.18 2.20776C29.551 2.16317 28.9216 2.28884 28.3449 2.57422C27.7681 2.85959 27.2608 3.29631 26.8656 3.84765C26.4705 4.39899 26.199 5.04882 26.074 5.7425C25.949 6.43617 25.9743 7.1534 26.1475 7.83386C26.934 10.7592 27.3518 13.7937 27.3889 16.8491V18.3556C27.3889 18.7049 27.3276 19.0508 27.2086 19.3735C27.0896 19.6962 26.9151 19.9894 26.6951 20.2364C26.4752 20.4834 26.2141 20.6793 25.9267 20.813C25.6393 20.9467 25.3313 21.0155 25.0202 21.0155C24.5392 21.0155 24.0629 21.1219 23.6185 21.3285C23.1741 21.5352 22.7704 21.8382 22.4302 22.2201C22.0901 22.602 21.8203 23.0554 21.6363 23.5544C21.4522 24.0534 21.3575 24.5882 21.3575 25.1283L20.3925 25.1283C19.7414 25.1283 19.1169 25.4188 18.6565 25.9357C18.1961 26.4527 17.9375 27.1539 17.9375 27.885C17.9375 28.6161 18.1961 29.3173 18.6565 29.8342C19.1169 30.3512 19.7414 30.6417 20.3925 30.6417H39.4677C40.1188 30.6417 40.7433 30.3512 41.2037 29.8342C41.6641 29.3173 41.9227 28.6161 41.9227 27.885C41.9227 27.1539 41.6641 26.4527 41.2037 25.9357C40.7433 25.4188 40.1188 25.1283 39.4677 25.1283ZM29.9301 8.70533C29.5713 8.70533 29.2206 8.58586 28.9223 8.36203C28.624 8.13821 28.3915 7.82007 28.2542 7.44787C28.1169 7.07566 28.0809 6.66609 28.1509 6.27096C28.2209 5.87583 28.3937 5.51288 28.6474 5.22801C28.9011 4.94313 29.2243 4.74913 29.5762 4.67054C29.9281 4.59194 30.2928 4.63228 30.6243 4.78646C30.9558 4.94063 31.2391 5.20171 31.4384 5.53669C31.6378 5.87167 31.7441 6.26549 31.7441 6.66837C31.7441 6.93586 31.6972 7.20074 31.6061 7.44788C31.5149 7.69502 31.3813 7.91957 31.2128 8.10872C31.0444 8.29787 30.8444 8.44792 30.6243 8.55028C30.4042 8.65265 30.1683 8.70533 29.9301 8.70533Z" fill="#279472"/>
<path d="M38.5793 33.4841H21.2803C20.9879 33.4841 20.7076 33.6145 20.5009 33.8466C20.2942 34.0787 20.1781 34.3935 20.1781 34.7218V46.2395C20.1817 46.5923 20.1112 46.941 19.9722 47.2574C19.8333 47.5738 19.6299 47.849 19.3784 48.0605C19.3176 48.1129 19.273 48.1854 19.2507 48.2678C19.2284 48.3502 19.2297 48.4383 19.2543 48.5199C19.2788 48.6014 19.3255 48.6723 19.3878 48.7225C19.45 48.7728 19.5247 48.7999 19.6014 48.8001H24.2654L25.5176 43.764C25.5285 43.7201 25.552 43.6815 25.5846 43.6542C25.6171 43.6269 25.6567 43.6125 25.6973 43.6131C25.7379 43.6138 25.7772 43.6296 25.8089 43.658C25.8407 43.6864 25.8632 43.7258 25.8729 43.7701L26.9375 48.6207C26.9473 48.6653 26.9701 48.705 27.0023 48.7334C27.0345 48.7619 27.0742 48.7774 27.1151 48.7776C27.1561 48.7778 27.1959 48.7626 27.2283 48.7345C27.2607 48.7064 27.2837 48.6669 27.2939 48.6224L27.8836 46.0293C27.8933 45.9866 27.915 45.9485 27.9454 45.9206C27.9758 45.8927 28.0134 45.8765 28.0526 45.8743C28.0919 45.8722 28.1307 45.8842 28.1634 45.9087C28.1961 45.9331 28.2209 45.9687 28.2343 46.0102L29.1334 48.8001H34.3195L35.0624 45.0842C35.0714 45.0392 35.0936 44.9988 35.1254 44.9696C35.1573 44.9404 35.197 44.924 35.2381 44.9231C35.2792 44.9222 35.3194 44.9369 35.3522 44.9647C35.3851 44.9925 35.4086 45.0319 35.4192 45.0765L36.299 48.8001H37.4011C37.7006 48.8001 37.9971 48.7339 38.2738 48.6052C38.5504 48.4765 38.8018 48.2879 39.0136 48.0501C39.2253 47.8124 39.3933 47.5301 39.5079 47.2194C39.6225 46.9088 39.6815 46.5758 39.6815 46.2395V34.7218C39.6815 34.5593 39.6529 34.3983 39.5976 34.2482C39.5422 34.098 39.461 33.9616 39.3586 33.8466C39.2563 33.7317 39.1348 33.6405 39.001 33.5783C38.8673 33.5161 38.724 33.4841 38.5793 33.4841Z" fill="#279472"/>
<path d="M5.33564 45.9768C5.00213 45.9768 4.68227 46.1256 4.44644 46.3904C4.21061 46.6552 4.07813 47.0144 4.07812 47.3889C4.07813 47.7634 4.21061 48.1226 4.44644 48.3874C4.68227 48.6522 5.00213 48.801 5.33564 48.801H16.7213C16.6615 48.2829 16.7128 47.7563 16.871 47.265C17.0293 46.7737 17.2898 46.3321 17.6309 45.9768H5.33564Z" fill="#279472"/>
<path d="M15.6027 8.78276H23.9167L23.9186 8.7798C23.7216 8.0805 23.6214 7.35141 23.6214 6.61797C23.6213 6.39774 23.6315 6.17765 23.6519 5.95862H15.6027C15.4376 5.95862 15.2741 5.99514 15.1215 6.0661C14.9689 6.13707 14.8303 6.24108 14.7135 6.3722C14.5968 6.50332 14.5041 6.65899 14.4409 6.83031C14.3777 7.00162 14.3452 7.18524 14.3452 7.37068C14.3452 7.55611 14.3777 7.73975 14.4409 7.91107C14.5041 8.08239 14.5968 8.23805 14.7135 8.36918C14.8303 8.5003 14.9689 8.60431 15.1215 8.67527C15.2741 8.74624 15.4376 8.78276 15.6027 8.78276Z" fill="#279472"/>
<path d="M10.3859 15.2771H24.9654C24.9089 14.3305 24.808 13.3878 24.6634 12.453H10.3859C10.0524 12.453 9.73257 12.6018 9.49674 12.8666C9.26091 13.1314 9.12842 13.4906 9.12842 13.8651C9.12842 14.2396 9.26091 14.5987 9.49674 14.8635C9.73257 15.1284 10.0524 15.2771 10.3859 15.2771Z" fill="#279472"/>
<path d="M5.33565 21.9736H19.6776C20.2414 20.774 21.1112 19.7906 22.1756 19.1494H5.33565C5.00214 19.1494 4.68228 19.2982 4.44645 19.563C4.21061 19.8278 4.07813 20.187 4.07812 20.5615C4.07813 20.936 4.21061 21.2952 4.44645 21.56C4.68228 21.8248 5.00214 21.9736 5.33565 21.9736Z" fill="#279472"/>
</svg>
