<svg width="46" height="51" viewBox="0 0 46 51" fill="none" xmlns="http://www.w3.org/2000/svg">
<path d="M24.1808 11.3333C29.1252 11.3333 30.9586 13.6944 31.1252 17.1667H37.2641C37.0697 12.3889 34.153 8 28.3474 6.58333V0.5H20.0141V6.5C18.9308 6.72222 17.9308 7.08333 16.9585 7.5L21.153 11.6944C22.0419 11.4722 23.0697 11.3333 24.1808 11.3333ZM4.65299 3.05556L0.736328 6.97222L10.2919 16.5278C10.2919 22.3056 14.6252 25.4722 21.153 27.3889L30.903 37.1389C29.9586 38.5 27.9863 39.6667 24.1808 39.6667C18.4586 39.6667 16.2086 37.1111 15.903 33.8333H9.79188C10.1252 39.9167 14.6808 43.3333 20.0141 44.4722V50.5H28.3474V44.5278C31.0141 44.0278 33.4308 43 35.1808 41.4167L41.3474 47.5833L45.2641 43.6667L4.65299 3.05556Z" fill="#279472"/>
</svg>
