<svg width="255" height="797" viewBox="0 0 255 797" fill="none" xmlns="http://www.w3.org/2000/svg">
<circle cx="127.5" cy="34" r="34" fill="#EEEEEE"/>
<path fill-rule="evenodd" clip-rule="evenodd" d="M122.404 35.0005H122.147C117.924 35.0005 114.5 38.2925 114.5 42.3534V45.0592C114.5 46.6836 115.869 48.0003 117.559 48.0003H137.441C139.131 48.0003 140.5 46.6836 140.5 45.0592V42.3534C140.5 38.2925 137.076 35.0005 132.853 35.0005H132.596C131.65 36.7813 129.723 38.0005 127.5 38.0005C125.277 38.0005 123.35 36.7813 122.404 35.0005Z" fill="#4FAA89"/>
<path d="M133.761 27.9999C133.761 32.2242 130.882 35.4998 127.501 35.4998C124.119 35.4998 121.241 32.2242 121.241 27.9999C121.241 23.7756 124.119 20.5 127.501 20.5C130.882 20.5 133.761 23.7756 133.761 27.9999Z" stroke="#4FAA89"/>
<path d="M127.501 20C123.767 20 120.741 23.5817 120.741 27.9999C124.442 29.1911 128.265 26.2499 129.795 24.4117C130.177 25.5146 130.559 28.8234 134.261 27.9999C134.261 23.5817 131.234 20 127.501 20Z" fill="#4FAA89"/>
<path d="M48.2301 99.0597C48.0653 98.5426 47.8438 98.0795 47.5653 97.6705C47.2926 97.2557 46.9659 96.9034 46.5852 96.6136C46.2045 96.3182 45.7699 96.0937 45.2812 95.9403C44.7983 95.7869 44.267 95.7102 43.6875 95.7102C42.7045 95.7102 41.8182 95.9631 41.0284 96.4688C40.2386 96.9744 39.6136 97.7159 39.1534 98.6932C38.6989 99.6648 38.4716 100.855 38.4716 102.264C38.4716 103.679 38.7017 104.875 39.1619 105.852C39.6222 106.83 40.2528 107.571 41.054 108.077C41.8551 108.582 42.767 108.835 43.7898 108.835C44.7386 108.835 45.5653 108.642 46.2699 108.256C46.9801 107.869 47.5284 107.324 47.9148 106.619C48.3068 105.909 48.5028 105.074 48.5028 104.114L49.1847 104.241H44.1903V102.068H51.0511V104.054C51.0511 105.52 50.7386 106.793 50.1136 107.872C49.4943 108.946 48.6364 109.776 47.5398 110.361C46.4489 110.946 45.1989 111.239 43.7898 111.239C42.2102 111.239 40.8239 110.875 39.6307 110.148C38.4432 109.42 37.517 108.389 36.8523 107.054C36.1875 105.713 35.8551 104.122 35.8551 102.281C35.8551 100.889 36.0483 99.6392 36.4347 98.5312C36.821 97.4233 37.3636 96.483 38.0625 95.7102C38.767 94.9318 39.5938 94.3381 40.5426 93.929C41.4972 93.5142 42.5398 93.3068 43.6705 93.3068C44.6136 93.3068 45.4915 93.446 46.304 93.7244C47.1222 94.0028 47.8494 94.3977 48.4858 94.9091C49.1278 95.4205 49.6591 96.0284 50.0795 96.733C50.5 97.4318 50.7841 98.2074 50.9318 99.0597H48.2301ZM59.8317 111.264C58.5419 111.264 57.4311 110.989 56.4993 110.438C55.5732 109.881 54.8572 109.099 54.3516 108.094C53.8516 107.082 53.6016 105.898 53.6016 104.54C53.6016 103.199 53.8516 102.017 54.3516 100.994C54.8572 99.9716 55.5618 99.1733 56.4652 98.5994C57.3743 98.0256 58.4368 97.7386 59.6527 97.7386C60.3913 97.7386 61.1072 97.8608 61.8004 98.1051C62.4936 98.3494 63.1158 98.733 63.6669 99.2557C64.218 99.7784 64.6527 100.457 64.9709 101.293C65.2891 102.122 65.4482 103.131 65.4482 104.318V105.222H55.0419V103.312H62.951C62.951 102.642 62.8146 102.048 62.5419 101.531C62.2692 101.009 61.8857 100.597 61.3913 100.295C60.9027 99.9943 60.3288 99.8438 59.6697 99.8438C58.9538 99.8438 58.3288 100.02 57.7947 100.372C57.2663 100.719 56.8572 101.173 56.5675 101.736C56.2834 102.293 56.1413 102.898 56.1413 103.551V105.043C56.1413 105.918 56.2947 106.662 56.6016 107.276C56.9141 107.889 57.3487 108.358 57.9055 108.682C58.4624 109 59.1129 109.159 59.8572 109.159C60.3402 109.159 60.7805 109.091 61.1783 108.955C61.576 108.812 61.9197 108.602 62.2095 108.324C62.4993 108.045 62.7209 107.702 62.8743 107.293L65.2862 107.727C65.093 108.437 64.7464 109.06 64.2464 109.594C63.7521 110.122 63.13 110.534 62.38 110.83C61.6357 111.119 60.7862 111.264 59.8317 111.264ZM74.3864 97.9091V99.9545H67.2358V97.9091H74.3864ZM69.1534 94.7727H71.7017V107.156C71.7017 107.651 71.7756 108.023 71.9233 108.273C72.071 108.517 72.2614 108.685 72.4943 108.776C72.733 108.861 72.9915 108.903 73.2699 108.903C73.4744 108.903 73.6534 108.889 73.8068 108.861C73.9602 108.832 74.0795 108.81 74.1648 108.793L74.625 110.898C74.4773 110.955 74.267 111.011 73.9943 111.068C73.7216 111.131 73.3807 111.165 72.9716 111.17C72.3011 111.182 71.6761 111.062 71.0966 110.812C70.517 110.562 70.0483 110.176 69.6903 109.653C69.3324 109.131 69.1534 108.474 69.1534 107.685V94.7727ZM83.3161 97.9091V99.9545H76.1655V97.9091H83.3161ZM78.0831 94.7727H80.6314V107.156C80.6314 107.651 80.7053 108.023 80.853 108.273C81.0007 108.517 81.1911 108.685 81.424 108.776C81.6626 108.861 81.9212 108.903 82.1996 108.903C82.4041 108.903 82.5831 108.889 82.7365 108.861C82.8899 108.832 83.0092 108.81 83.0945 108.793L83.5547 110.898C83.407 110.955 83.1967 111.011 82.924 111.068C82.6513 111.131 82.3104 111.165 81.9013 111.17C81.2308 111.182 80.6058 111.062 80.0263 110.812C79.4467 110.562 78.978 110.176 78.62 109.653C78.2621 109.131 78.0831 108.474 78.0831 107.685V94.7727ZM86.1349 111V97.9091H88.6832V111H86.1349ZM87.4219 95.8892C86.9787 95.8892 86.598 95.7415 86.2798 95.446C85.9673 95.1449 85.8111 94.7869 85.8111 94.3722C85.8111 93.9517 85.9673 93.5937 86.2798 93.2983C86.598 92.9972 86.9787 92.8466 87.4219 92.8466C87.8651 92.8466 88.2429 92.9972 88.5554 93.2983C88.8736 93.5937 89.0327 93.9517 89.0327 94.3722C89.0327 94.7869 88.8736 95.1449 88.5554 95.446C88.2429 95.7415 87.8651 95.8892 87.4219 95.8892ZM94.6598 103.227V111H92.1115V97.9091H94.5575V100.04H94.7195C95.0206 99.3466 95.4922 98.7898 96.1342 98.3693C96.782 97.9489 97.5973 97.7386 98.5803 97.7386C99.4723 97.7386 100.254 97.9261 100.924 98.3011C101.594 98.6705 102.114 99.2216 102.484 99.9545C102.853 100.687 103.038 101.594 103.038 102.673V111H100.489V102.98C100.489 102.031 100.242 101.29 99.7479 100.756C99.2536 100.216 98.5746 99.946 97.7109 99.946C97.12 99.946 96.5945 100.074 96.1342 100.33C95.6797 100.585 95.3189 100.96 95.0518 101.455C94.7905 101.943 94.6598 102.534 94.6598 103.227ZM111.944 116.182C110.904 116.182 110.009 116.045 109.259 115.773C108.515 115.5 107.907 115.139 107.435 114.69C106.964 114.241 106.612 113.75 106.379 113.216L108.569 112.312C108.722 112.562 108.927 112.827 109.183 113.105C109.444 113.389 109.796 113.631 110.239 113.83C110.688 114.028 111.265 114.128 111.969 114.128C112.935 114.128 113.734 113.892 114.364 113.42C114.995 112.955 115.31 112.21 115.31 111.188V108.614H115.148C114.995 108.892 114.773 109.202 114.484 109.543C114.2 109.884 113.808 110.179 113.308 110.429C112.808 110.679 112.157 110.804 111.356 110.804C110.322 110.804 109.39 110.562 108.56 110.08C107.737 109.591 107.083 108.872 106.6 107.923C106.123 106.969 105.884 105.795 105.884 104.403C105.884 103.011 106.12 101.818 106.592 100.824C107.069 99.8295 107.722 99.0682 108.552 98.5398C109.381 98.0057 110.322 97.7386 111.373 97.7386C112.185 97.7386 112.842 97.875 113.342 98.1477C113.842 98.4148 114.231 98.7273 114.509 99.0852C114.793 99.4432 115.012 99.7585 115.165 100.031H115.353V97.9091H117.85V111.29C117.85 112.415 117.589 113.338 117.066 114.06C116.543 114.781 115.836 115.315 114.944 115.662C114.058 116.009 113.058 116.182 111.944 116.182ZM111.918 108.69C112.651 108.69 113.271 108.52 113.776 108.179C114.288 107.832 114.674 107.338 114.935 106.696C115.202 106.048 115.336 105.273 115.336 104.369C115.336 103.489 115.205 102.713 114.944 102.043C114.683 101.372 114.299 100.849 113.793 100.474C113.288 100.094 112.663 99.9034 111.918 99.9034C111.151 99.9034 110.512 100.102 110.001 100.5C109.489 100.892 109.103 101.426 108.842 102.102C108.586 102.778 108.458 103.534 108.458 104.369C108.458 105.227 108.589 105.98 108.85 106.628C109.112 107.276 109.498 107.781 110.009 108.145C110.526 108.509 111.163 108.69 111.918 108.69ZM127.619 111V97.9091H130.168V111H127.619ZM128.906 95.8892C128.463 95.8892 128.082 95.7415 127.764 95.446C127.452 95.1449 127.295 94.7869 127.295 94.3722C127.295 93.9517 127.452 93.5937 127.764 93.2983C128.082 92.9972 128.463 92.8466 128.906 92.8466C129.349 92.8466 129.727 92.9972 130.04 93.2983C130.358 93.5937 130.517 93.9517 130.517 94.3722C130.517 94.7869 130.358 95.1449 130.04 95.446C129.727 95.7415 129.349 95.8892 128.906 95.8892ZM136.144 103.227V111H133.596V97.9091H136.042V100.04H136.204C136.505 99.3466 136.977 98.7898 137.619 98.3693C138.266 97.9489 139.082 97.7386 140.065 97.7386C140.957 97.7386 141.738 97.9261 142.408 98.3011C143.079 98.6705 143.599 99.2216 143.968 99.9545C144.337 100.687 144.522 101.594 144.522 102.673V111H141.974V102.98C141.974 102.031 141.727 101.29 141.232 100.756C140.738 100.216 140.059 99.946 139.195 99.946C138.604 99.946 138.079 100.074 137.619 100.33C137.164 100.585 136.803 100.96 136.536 101.455C136.275 101.943 136.144 102.534 136.144 103.227ZM160.99 97.9091V100.636H153.107V97.9091H160.99ZM154.896 94.7727H158.527V106.977C158.527 107.312 158.578 107.574 158.68 107.761C158.783 107.943 158.925 108.071 159.107 108.145C159.294 108.219 159.51 108.256 159.754 108.256C159.925 108.256 160.095 108.241 160.266 108.213C160.436 108.179 160.567 108.153 160.658 108.136L161.229 110.838C161.047 110.895 160.791 110.96 160.462 111.034C160.132 111.114 159.732 111.162 159.26 111.179C158.385 111.213 157.618 111.097 156.959 110.83C156.305 110.562 155.797 110.148 155.433 109.585C155.07 109.023 154.891 108.312 154.896 107.455V94.7727ZM169.129 111.256C167.805 111.256 166.661 110.974 165.695 110.412C164.734 109.844 163.993 109.054 163.47 108.043C162.947 107.026 162.686 105.847 162.686 104.506C162.686 103.153 162.947 101.972 163.47 100.96C163.993 99.9432 164.734 99.1534 165.695 98.5909C166.661 98.0227 167.805 97.7386 169.129 97.7386C170.453 97.7386 171.595 98.0227 172.555 98.5909C173.521 99.1534 174.266 99.9432 174.788 100.96C175.311 101.972 175.572 103.153 175.572 104.506C175.572 105.847 175.311 107.026 174.788 108.043C174.266 109.054 173.521 109.844 172.555 110.412C171.595 110.974 170.453 111.256 169.129 111.256ZM169.146 108.443C169.749 108.443 170.251 108.273 170.655 107.932C171.058 107.585 171.362 107.114 171.567 106.517C171.777 105.92 171.882 105.241 171.882 104.48C171.882 103.719 171.777 103.04 171.567 102.443C171.362 101.847 171.058 101.375 170.655 101.028C170.251 100.682 169.749 100.509 169.146 100.509C168.538 100.509 168.027 100.682 167.612 101.028C167.203 101.375 166.893 101.847 166.683 102.443C166.479 103.04 166.376 103.719 166.376 104.48C166.376 105.241 166.479 105.92 166.683 106.517C166.893 107.114 167.203 107.585 167.612 107.932C168.027 108.273 168.538 108.443 169.146 108.443ZM186.328 105.426V97.9091H189.959V111H186.473V108.622H186.337C186.041 109.389 185.55 110.006 184.862 110.472C184.18 110.937 183.348 111.17 182.365 111.17C181.49 111.17 180.72 110.972 180.055 110.574C179.391 110.176 178.871 109.611 178.496 108.878C178.126 108.145 177.939 107.267 177.933 106.244V97.9091H181.564V105.597C181.57 106.369 181.777 106.98 182.186 107.429C182.595 107.878 183.143 108.102 183.831 108.102C184.268 108.102 184.678 108.003 185.058 107.804C185.439 107.599 185.746 107.298 185.979 106.901C186.217 106.503 186.334 106.011 186.328 105.426ZM198.778 111.256C197.437 111.256 196.283 110.972 195.317 110.403C194.357 109.83 193.619 109.034 193.102 108.017C192.59 107 192.335 105.83 192.335 104.506C192.335 103.165 192.593 101.989 193.11 100.977C193.633 99.9602 194.374 99.1676 195.335 98.5994C196.295 98.0256 197.437 97.7386 198.761 97.7386C199.903 97.7386 200.903 97.946 201.761 98.3608C202.619 98.7756 203.298 99.358 203.798 100.108C204.298 100.858 204.573 101.739 204.624 102.75H201.198C201.102 102.097 200.846 101.571 200.431 101.173C200.022 100.77 199.485 100.568 198.82 100.568C198.258 100.568 197.766 100.722 197.346 101.028C196.931 101.33 196.607 101.77 196.374 102.349C196.141 102.929 196.025 103.631 196.025 104.455C196.025 105.29 196.138 106 196.366 106.585C196.599 107.17 196.925 107.616 197.346 107.923C197.766 108.23 198.258 108.384 198.82 108.384C199.235 108.384 199.607 108.298 199.937 108.128C200.272 107.957 200.548 107.71 200.763 107.386C200.985 107.057 201.13 106.662 201.198 106.202H204.624C204.567 107.202 204.295 108.082 203.806 108.844C203.323 109.599 202.656 110.19 201.803 110.616C200.951 111.043 199.942 111.256 198.778 111.256ZM210.58 103.432V111H206.949V93.5455H210.477V100.219H210.631C210.926 99.446 211.403 98.8409 212.062 98.4034C212.722 97.9602 213.548 97.7386 214.543 97.7386C215.452 97.7386 216.244 97.9375 216.92 98.3352C217.602 98.7273 218.131 99.2926 218.506 100.031C218.886 100.764 219.074 101.642 219.068 102.665V111H215.438V103.312C215.443 102.506 215.239 101.878 214.824 101.429C214.415 100.98 213.841 100.756 213.102 100.756C212.608 100.756 212.17 100.861 211.79 101.071C211.415 101.281 211.119 101.588 210.903 101.991C210.693 102.389 210.585 102.869 210.58 103.432Z" fill="#313131"/>
<rect x="34.5" y="142" width="186" height="2" fill="#4FAA89"/>
<circle cx="127.5" cy="251.667" r="34" fill="#EEEEEE"/>
<path fill-rule="evenodd" clip-rule="evenodd" d="M138.136 265.667H116.864C115.558 265.667 114.5 264.702 114.5 263.513V239.821C114.5 238.631 115.558 237.667 116.864 237.667H128.683V245.499C128.683 247.121 130.126 248.436 131.906 248.436H140.5V263.513C140.5 264.702 139.442 265.667 138.136 265.667ZM139.318 246.282L131.047 238.745V245.499C131.047 246.04 131.313 246.282 131.906 246.282H139.318ZM118.046 252.744C118.046 252.149 118.575 251.667 119.227 251.667H127.5C128.153 251.667 128.682 252.149 128.682 252.744C128.682 253.338 128.153 253.821 127.5 253.821H119.227C118.575 253.821 118.046 253.338 118.046 252.744ZM119.227 258.128C118.575 258.128 118.046 258.61 118.046 259.205C118.046 259.8 118.575 260.282 119.227 260.282H134.591C135.244 260.282 135.773 259.8 135.773 259.205C135.773 258.61 135.244 258.128 134.591 258.128H119.227Z" fill="#4FAA89"/>
<path d="M8.06818 328.667H2.41761V311.212H8.24716C9.95739 311.212 11.4261 311.562 12.6534 312.26C13.8807 312.954 14.821 313.951 15.4744 315.252C16.1335 316.547 16.4631 318.101 16.4631 319.914C16.4631 321.732 16.1307 323.295 15.4659 324.601C14.8068 325.908 13.8523 326.914 12.6023 327.618C11.3523 328.317 9.84091 328.667 8.06818 328.667ZM5.05114 326.366H7.9233C9.25284 326.366 10.358 326.116 11.2386 325.616C12.1193 325.11 12.7784 324.38 13.2159 323.425C13.6534 322.465 13.8722 321.295 13.8722 319.914C13.8722 318.545 13.6534 317.383 13.2159 316.428C12.7841 315.474 12.1392 314.749 11.2812 314.255C10.4233 313.76 9.35795 313.513 8.08523 313.513H5.05114V326.366ZM19.5334 328.667V315.576H22.0817V328.667H19.5334ZM20.8203 313.556C20.3771 313.556 19.9964 313.408 19.6783 313.113C19.3658 312.812 19.2095 312.454 19.2095 312.039C19.2095 311.618 19.3658 311.26 19.6783 310.965C19.9964 310.664 20.3771 310.513 20.8203 310.513C21.2635 310.513 21.6413 310.664 21.9538 310.965C22.272 311.26 22.4311 311.618 22.4311 312.039C22.4311 312.454 22.272 312.812 21.9538 313.113C21.6413 313.408 21.2635 313.556 20.8203 313.556ZM35.3196 318.772L33.0099 319.181C32.9134 318.885 32.7599 318.604 32.5497 318.337C32.3452 318.07 32.0668 317.851 31.7145 317.681C31.3622 317.51 30.9219 317.425 30.3935 317.425C29.6719 317.425 29.0696 317.587 28.5866 317.911C28.1037 318.229 27.8622 318.641 27.8622 319.147C27.8622 319.584 28.0241 319.937 28.348 320.204C28.6719 320.471 29.1946 320.689 29.9162 320.86L31.9957 321.337C33.2003 321.616 34.098 322.045 34.6889 322.624C35.2798 323.204 35.5753 323.957 35.5753 324.883C35.5753 325.667 35.348 326.366 34.8935 326.979C34.4446 327.587 33.8168 328.064 33.0099 328.411C32.2088 328.758 31.2798 328.931 30.223 328.931C28.7571 328.931 27.5611 328.618 26.6349 327.993C25.7088 327.363 25.1406 326.468 24.9304 325.309L27.3935 324.934C27.5469 325.576 27.8622 326.062 28.3395 326.391C28.8168 326.715 29.4389 326.877 30.206 326.877C31.0412 326.877 31.7088 326.704 32.2088 326.357C32.7088 326.005 32.9588 325.576 32.9588 325.07C32.9588 324.661 32.8054 324.317 32.4986 324.039C32.1974 323.76 31.7344 323.55 31.1094 323.408L28.8935 322.922C27.6719 322.644 26.7685 322.201 26.1832 321.593C25.6037 320.985 25.3139 320.215 25.3139 319.283C25.3139 318.51 25.5298 317.834 25.9616 317.255C26.3935 316.675 26.9901 316.224 27.7514 315.9C28.5128 315.57 29.3849 315.405 30.3679 315.405C31.7827 315.405 32.8963 315.712 33.7088 316.326C34.5213 316.934 35.0582 317.749 35.3196 318.772ZM43.8913 328.931C42.6243 328.931 41.5334 328.644 40.6186 328.07C39.7095 327.491 39.0107 326.692 38.522 325.675C38.0334 324.658 37.7891 323.493 37.7891 322.181C37.7891 320.851 38.0391 319.678 38.5391 318.661C39.0391 317.638 39.7436 316.84 40.6527 316.266C41.5618 315.692 42.6328 315.405 43.8658 315.405C44.8601 315.405 45.7464 315.59 46.5249 315.959C47.3033 316.323 47.9311 316.834 48.4084 317.493C48.8913 318.153 49.1783 318.922 49.2692 319.803H46.7891C46.6527 319.189 46.3402 318.661 45.8516 318.218C45.3686 317.775 44.7209 317.553 43.9084 317.553C43.1982 317.553 42.576 317.741 42.0419 318.116C41.5135 318.485 41.1016 319.013 40.8061 319.701C40.5107 320.383 40.3629 321.189 40.3629 322.121C40.3629 323.076 40.5078 323.9 40.7976 324.593C41.0874 325.286 41.4964 325.823 42.0249 326.204C42.5589 326.584 43.1868 326.775 43.9084 326.775C44.3913 326.775 44.8288 326.687 45.2209 326.51C45.6186 326.329 45.951 326.07 46.218 325.735C46.4908 325.4 46.6811 324.996 46.7891 324.525H49.2692C49.1783 325.371 48.9027 326.127 48.4425 326.792C47.9822 327.457 47.3658 327.979 46.593 328.36C45.826 328.741 44.9254 328.931 43.8913 328.931ZM60.2869 323.238V315.576H62.8438V328.667H60.3381V326.4H60.2017C59.9006 327.099 59.4176 327.681 58.7528 328.147C58.0938 328.607 57.2727 328.837 56.2898 328.837C55.4489 328.837 54.7045 328.653 54.0568 328.283C53.4148 327.908 52.9091 327.354 52.5398 326.621C52.1761 325.888 51.9943 324.982 51.9943 323.903V315.576H54.5426V323.596C54.5426 324.488 54.7898 325.198 55.2841 325.726C55.7784 326.255 56.4205 326.519 57.2102 326.519C57.6875 326.519 58.1619 326.4 58.6335 326.161C59.1108 325.922 59.5057 325.562 59.8182 325.079C60.1364 324.596 60.2926 323.982 60.2869 323.238ZM76.0774 318.772L73.7678 319.181C73.6712 318.885 73.5178 318.604 73.3075 318.337C73.103 318.07 72.8246 317.851 72.4723 317.681C72.12 317.51 71.6797 317.425 71.1513 317.425C70.4297 317.425 69.8274 317.587 69.3445 317.911C68.8615 318.229 68.62 318.641 68.62 319.147C68.62 319.584 68.782 319.937 69.1058 320.204C69.4297 320.471 69.9524 320.689 70.674 320.86L72.7536 321.337C73.9581 321.616 74.8558 322.045 75.4467 322.624C76.0376 323.204 76.3331 323.957 76.3331 324.883C76.3331 325.667 76.1058 326.366 75.6513 326.979C75.2024 327.587 74.5746 328.064 73.7678 328.411C72.9666 328.758 72.0376 328.931 70.9808 328.931C69.5149 328.931 68.3189 328.618 67.3928 327.993C66.4666 327.363 65.8984 326.468 65.6882 325.309L68.1513 324.934C68.3047 325.576 68.62 326.062 69.0973 326.391C69.5746 326.715 70.1967 326.877 70.9638 326.877C71.799 326.877 72.4666 326.704 72.9666 326.357C73.4666 326.005 73.7166 325.576 73.7166 325.07C73.7166 324.661 73.5632 324.317 73.2564 324.039C72.9553 323.76 72.4922 323.55 71.8672 323.408L69.6513 322.922C68.4297 322.644 67.5263 322.201 66.9411 321.593C66.3615 320.985 66.0717 320.215 66.0717 319.283C66.0717 318.51 66.2876 317.834 66.7195 317.255C67.1513 316.675 67.7479 316.224 68.5092 315.9C69.2706 315.57 70.1428 315.405 71.1257 315.405C72.5405 315.405 73.6541 315.712 74.4666 316.326C75.2791 316.934 75.8161 317.749 76.0774 318.772ZM88.9446 318.772L86.6349 319.181C86.5384 318.885 86.3849 318.604 86.1747 318.337C85.9702 318.07 85.6918 317.851 85.3395 317.681C84.9872 317.51 84.5469 317.425 84.0185 317.425C83.2969 317.425 82.6946 317.587 82.2116 317.911C81.7287 318.229 81.4872 318.641 81.4872 319.147C81.4872 319.584 81.6491 319.937 81.973 320.204C82.2969 320.471 82.8196 320.689 83.5412 320.86L85.6207 321.337C86.8253 321.616 87.723 322.045 88.3139 322.624C88.9048 323.204 89.2003 323.957 89.2003 324.883C89.2003 325.667 88.973 326.366 88.5185 326.979C88.0696 327.587 87.4418 328.064 86.6349 328.411C85.8338 328.758 84.9048 328.931 83.848 328.931C82.3821 328.931 81.1861 328.618 80.2599 327.993C79.3338 327.363 78.7656 326.468 78.5554 325.309L81.0185 324.934C81.1719 325.576 81.4872 326.062 81.9645 326.391C82.4418 326.715 83.0639 326.877 83.831 326.877C84.6662 326.877 85.3338 326.704 85.8338 326.357C86.3338 326.005 86.5838 325.576 86.5838 325.07C86.5838 324.661 86.4304 324.317 86.1236 324.039C85.8224 323.76 85.3594 323.55 84.7344 323.408L82.5185 322.922C81.2969 322.644 80.3935 322.201 79.8082 321.593C79.2287 320.985 78.9389 320.215 78.9389 319.283C78.9389 318.51 79.1548 317.834 79.5866 317.255C80.0185 316.675 80.6151 316.224 81.3764 315.9C82.1378 315.57 83.0099 315.405 83.9929 315.405C85.4077 315.405 86.5213 315.712 87.3338 316.326C88.1463 316.934 88.6832 317.749 88.9446 318.772ZM98.0895 328.667V315.576H101.609V317.86H101.746C101.984 317.047 102.385 316.434 102.947 316.019C103.51 315.599 104.158 315.388 104.891 315.388C105.072 315.388 105.268 315.4 105.479 315.422C105.689 315.445 105.874 315.476 106.033 315.516V318.738C105.862 318.687 105.626 318.641 105.325 318.601C105.024 318.562 104.749 318.542 104.499 318.542C103.964 318.542 103.487 318.658 103.067 318.891C102.652 319.118 102.322 319.437 102.078 319.846C101.839 320.255 101.72 320.726 101.72 321.26V328.667H98.0895ZM113.266 328.922C111.92 328.922 110.761 328.65 109.789 328.104C108.823 327.553 108.079 326.775 107.556 325.769C107.033 324.758 106.772 323.562 106.772 322.181C106.772 320.834 107.033 319.653 107.556 318.635C108.079 317.618 108.815 316.826 109.763 316.258C110.718 315.689 111.837 315.405 113.121 315.405C113.985 315.405 114.789 315.545 115.533 315.823C116.283 316.096 116.937 316.508 117.494 317.059C118.056 317.61 118.494 318.303 118.806 319.138C119.119 319.968 119.275 320.939 119.275 322.053V323.05H108.221V320.8H115.857C115.857 320.278 115.744 319.814 115.516 319.411C115.289 319.008 114.974 318.692 114.57 318.465C114.173 318.232 113.71 318.116 113.181 318.116C112.63 318.116 112.141 318.243 111.715 318.499C111.295 318.749 110.965 319.087 110.727 319.513C110.488 319.934 110.366 320.403 110.36 320.92V323.059C110.36 323.707 110.479 324.266 110.718 324.738C110.962 325.209 111.306 325.573 111.749 325.829C112.192 326.084 112.718 326.212 113.326 326.212C113.729 326.212 114.099 326.155 114.434 326.042C114.769 325.928 115.056 325.758 115.295 325.53C115.533 325.303 115.715 325.025 115.84 324.695L119.198 324.917C119.028 325.724 118.678 326.428 118.15 327.03C117.627 327.627 116.951 328.093 116.121 328.428C115.298 328.758 114.346 328.922 113.266 328.922ZM130.295 333.576V326.57H130.184C130.013 326.934 129.772 327.295 129.46 327.653C129.153 328.005 128.752 328.297 128.258 328.53C127.769 328.763 127.173 328.88 126.468 328.88C125.474 328.88 124.573 328.624 123.766 328.113C122.965 327.596 122.329 326.837 121.857 325.837C121.391 324.832 121.158 323.599 121.158 322.138C121.158 320.638 121.4 319.391 121.883 318.397C122.366 317.397 123.008 316.65 123.809 316.155C124.616 315.655 125.499 315.405 126.46 315.405C127.192 315.405 127.803 315.53 128.292 315.78C128.786 316.025 129.184 316.332 129.485 316.701C129.792 317.064 130.025 317.422 130.184 317.775H130.337V315.576H133.917V333.576H130.295ZM127.619 325.991C128.204 325.991 128.698 325.832 129.102 325.513C129.511 325.189 129.823 324.738 130.039 324.158C130.261 323.579 130.371 322.9 130.371 322.121C130.371 321.343 130.263 320.667 130.048 320.093C129.832 319.519 129.519 319.076 129.11 318.763C128.701 318.451 128.204 318.295 127.619 318.295C127.022 318.295 126.519 318.457 126.11 318.78C125.701 319.104 125.391 319.553 125.181 320.127C124.971 320.701 124.866 321.366 124.866 322.121C124.866 322.883 124.971 323.556 125.181 324.141C125.397 324.721 125.707 325.175 126.11 325.505C126.519 325.829 127.022 325.991 127.619 325.991ZM145.227 323.093V315.576H148.857V328.667H145.371V326.289H145.235C144.94 327.056 144.448 327.672 143.761 328.138C143.079 328.604 142.246 328.837 141.263 328.837C140.388 328.837 139.619 328.638 138.954 328.241C138.289 327.843 137.769 327.278 137.394 326.545C137.025 325.812 136.837 324.934 136.832 323.911V315.576H140.462V323.263C140.468 324.036 140.675 324.647 141.085 325.096C141.494 325.545 142.042 325.769 142.729 325.769C143.167 325.769 143.576 325.67 143.957 325.471C144.337 325.266 144.644 324.965 144.877 324.567C145.116 324.17 145.232 323.678 145.227 323.093ZM151.761 328.667V315.576H155.392V328.667H151.761ZM153.585 313.888C153.045 313.888 152.582 313.709 152.196 313.351C151.815 312.988 151.625 312.553 151.625 312.047C151.625 311.547 151.815 311.118 152.196 310.76C152.582 310.397 153.045 310.215 153.585 310.215C154.125 310.215 154.585 310.397 154.966 310.76C155.352 311.118 155.545 311.547 155.545 312.047C155.545 312.553 155.352 312.988 154.966 313.351C154.585 313.709 154.125 313.888 153.585 313.888ZM158.3 328.667V315.576H161.82V317.86H161.957C162.195 317.047 162.596 316.434 163.158 316.019C163.721 315.599 164.369 315.388 165.102 315.388C165.283 315.388 165.479 315.4 165.69 315.422C165.9 315.445 166.085 315.476 166.244 315.516V318.738C166.073 318.687 165.837 318.641 165.536 318.601C165.235 318.562 164.96 318.542 164.71 318.542C164.175 318.542 163.698 318.658 163.278 318.891C162.863 319.118 162.533 319.437 162.289 319.846C162.05 320.255 161.931 320.726 161.931 321.26V328.667H158.3ZM173.477 328.922C172.131 328.922 170.972 328.65 170 328.104C169.034 327.553 168.29 326.775 167.767 325.769C167.244 324.758 166.983 323.562 166.983 322.181C166.983 320.834 167.244 319.653 167.767 318.635C168.29 317.618 169.026 316.826 169.974 316.258C170.929 315.689 172.048 315.405 173.332 315.405C174.196 315.405 175 315.545 175.744 315.823C176.494 316.096 177.148 316.508 177.705 317.059C178.267 317.61 178.705 318.303 179.017 319.138C179.33 319.968 179.486 320.939 179.486 322.053V323.05H168.432V320.8H176.068C176.068 320.278 175.955 319.814 175.727 319.411C175.5 319.008 175.185 318.692 174.781 318.465C174.384 318.232 173.92 318.116 173.392 318.116C172.841 318.116 172.352 318.243 171.926 318.499C171.506 318.749 171.176 319.087 170.938 319.513C170.699 319.934 170.577 320.403 170.571 320.92V323.059C170.571 323.707 170.69 324.266 170.929 324.738C171.173 325.209 171.517 325.573 171.96 325.829C172.403 326.084 172.929 326.212 173.537 326.212C173.94 326.212 174.31 326.155 174.645 326.042C174.98 325.928 175.267 325.758 175.506 325.53C175.744 325.303 175.926 325.025 176.051 324.695L179.409 324.917C179.239 325.724 178.889 326.428 178.361 327.03C177.838 327.627 177.162 328.093 176.332 328.428C175.509 328.758 174.557 328.922 173.477 328.922ZM181.855 328.667V315.576H185.315V317.885H185.469C185.741 317.118 186.196 316.513 186.832 316.07C187.469 315.627 188.23 315.405 189.116 315.405C190.014 315.405 190.778 315.63 191.409 316.079C192.04 316.522 192.46 317.124 192.67 317.885H192.807C193.074 317.135 193.557 316.536 194.256 316.087C194.96 315.633 195.793 315.405 196.753 315.405C197.974 315.405 198.966 315.795 199.727 316.573C200.494 317.346 200.878 318.442 200.878 319.863V328.667H197.256V320.579C197.256 319.851 197.063 319.306 196.676 318.942C196.29 318.579 195.807 318.397 195.227 318.397C194.568 318.397 194.054 318.607 193.685 319.028C193.315 319.442 193.131 319.991 193.131 320.672V328.667H189.611V320.502C189.611 319.86 189.426 319.349 189.057 318.968C188.693 318.587 188.213 318.397 187.616 318.397C187.213 318.397 186.849 318.499 186.526 318.704C186.207 318.903 185.955 319.184 185.767 319.547C185.58 319.905 185.486 320.326 185.486 320.809V328.667H181.855ZM209.712 328.922C208.365 328.922 207.206 328.65 206.234 328.104C205.268 327.553 204.524 326.775 204.001 325.769C203.479 324.758 203.217 323.562 203.217 322.181C203.217 320.834 203.479 319.653 204.001 318.635C204.524 317.618 205.26 316.826 206.209 316.258C207.163 315.689 208.283 315.405 209.567 315.405C210.43 315.405 211.234 315.545 211.979 315.823C212.729 316.096 213.382 316.508 213.939 317.059C214.501 317.61 214.939 318.303 215.251 319.138C215.564 319.968 215.72 320.939 215.72 322.053V323.05H204.666V320.8H212.303C212.303 320.278 212.189 319.814 211.962 319.411C211.734 319.008 211.419 318.692 211.016 318.465C210.618 318.232 210.155 318.116 209.626 318.116C209.075 318.116 208.587 318.243 208.161 318.499C207.74 318.749 207.411 319.087 207.172 319.513C206.933 319.934 206.811 320.403 206.805 320.92V323.059C206.805 323.707 206.925 324.266 207.163 324.738C207.408 325.209 207.751 325.573 208.195 325.829C208.638 326.084 209.163 326.212 209.771 326.212C210.175 326.212 210.544 326.155 210.879 326.042C211.214 325.928 211.501 325.758 211.74 325.53C211.979 325.303 212.161 325.025 212.286 324.695L215.643 324.917C215.473 325.724 215.124 326.428 214.595 327.03C214.072 327.627 213.396 328.093 212.567 328.428C211.743 328.758 210.791 328.922 209.712 328.922ZM221.72 321.099V328.667H218.089V315.576H221.55V317.885H221.703C221.993 317.124 222.479 316.522 223.161 316.079C223.842 315.63 224.669 315.405 225.641 315.405C226.55 315.405 227.342 315.604 228.018 316.002C228.695 316.4 229.22 316.968 229.595 317.707C229.97 318.439 230.158 319.314 230.158 320.332V328.667H226.527V320.979C226.533 320.178 226.328 319.553 225.913 319.104C225.499 318.65 224.928 318.422 224.2 318.422C223.712 318.422 223.28 318.528 222.905 318.738C222.536 318.948 222.246 319.255 222.036 319.658C221.831 320.056 221.726 320.536 221.72 321.099ZM239.982 315.576V318.303H232.099V315.576H239.982ZM233.888 312.439H237.519V324.644C237.519 324.979 237.57 325.241 237.673 325.428C237.775 325.61 237.917 325.738 238.099 325.812C238.286 325.885 238.502 325.922 238.746 325.922C238.917 325.922 239.087 325.908 239.258 325.88C239.428 325.846 239.559 325.82 239.65 325.803L240.221 328.505C240.039 328.562 239.783 328.627 239.454 328.701C239.124 328.78 238.724 328.829 238.252 328.846C237.377 328.88 236.61 328.763 235.951 328.496C235.298 328.229 234.789 327.814 234.425 327.252C234.062 326.689 233.883 325.979 233.888 325.121V312.439ZM253.075 319.309L249.751 319.513C249.695 319.229 249.572 318.974 249.385 318.746C249.197 318.513 248.95 318.329 248.643 318.192C248.342 318.05 247.982 317.979 247.561 317.979C246.999 317.979 246.524 318.099 246.138 318.337C245.751 318.57 245.558 318.883 245.558 319.275C245.558 319.587 245.683 319.851 245.933 320.067C246.183 320.283 246.612 320.457 247.22 320.587L249.589 321.064C250.862 321.326 251.811 321.746 252.436 322.326C253.061 322.905 253.374 323.667 253.374 324.61C253.374 325.468 253.121 326.221 252.615 326.868C252.115 327.516 251.428 328.022 250.553 328.385C249.683 328.743 248.68 328.922 247.544 328.922C245.811 328.922 244.43 328.562 243.402 327.84C242.379 327.113 241.78 326.124 241.604 324.874L245.175 324.687C245.283 325.215 245.544 325.618 245.959 325.897C246.374 326.17 246.905 326.306 247.553 326.306C248.189 326.306 248.7 326.184 249.087 325.939C249.479 325.689 249.678 325.368 249.683 324.976C249.678 324.647 249.538 324.377 249.266 324.167C248.993 323.951 248.572 323.786 248.004 323.672L245.737 323.221C244.459 322.965 243.507 322.522 242.882 321.891C242.263 321.26 241.953 320.457 241.953 319.479C241.953 318.638 242.18 317.914 242.635 317.306C243.095 316.698 243.74 316.229 244.57 315.9C245.405 315.57 246.382 315.405 247.501 315.405C249.155 315.405 250.456 315.755 251.405 316.454C252.359 317.153 252.916 318.104 253.075 319.309Z" fill="#313131"/>
<rect x="0.5" y="359.667" width="254" height="2" fill="#4FAA89"/>
<circle cx="127.5" cy="469.333" r="34" fill="#EEEEEE"/>
<path d="M142.11 473.589L140.06 472.286C140.197 471.538 140.272 470.768 140.272 469.981C140.272 469.194 140.198 468.425 140.061 467.677L142.11 466.374C142.57 466.081 142.768 465.408 142.548 464.878L141.749 462.95C141.529 462.42 140.913 462.083 140.381 462.202L138.012 462.729C137.131 461.455 136.026 460.351 134.753 459.47L135.28 457.1C135.398 456.568 135.062 455.952 134.532 455.733L132.604 454.933C132.073 454.712 131.4 454.91 131.107 455.371L129.804 457.42C129.044 457.28 128.273 457.209 127.5 457.208C126.712 457.208 125.943 457.283 125.196 457.419L123.893 455.371C123.6 454.91 122.927 454.712 122.397 454.932L120.469 455.731C119.939 455.95 119.602 456.567 119.721 457.099L120.248 459.469C118.974 460.349 117.87 461.453 116.989 462.727L114.619 462.2C114.087 462.081 113.471 462.418 113.251 462.948L112.453 464.876C112.233 465.406 112.43 466.08 112.891 466.372L114.94 467.675C114.8 468.435 114.729 469.207 114.728 469.98C114.728 470.767 114.803 471.536 114.94 472.284L112.891 473.587C112.43 473.88 112.233 474.553 112.453 475.084L113.251 477.012C113.471 477.541 114.087 477.879 114.619 477.759L116.989 477.232C117.87 478.506 118.974 479.61 120.248 480.491L119.72 482.86C119.601 483.393 119.939 484.009 120.468 484.228L122.396 485.027C122.927 485.246 123.6 485.049 123.893 484.589L125.196 482.54C125.943 482.677 126.713 482.751 127.5 482.751C128.287 482.751 129.056 482.677 129.804 482.54L131.107 484.589C131.4 485.049 132.073 485.246 132.603 485.027L134.531 484.229C135.062 484.009 135.398 483.393 135.279 482.86L134.752 480.491C136.026 479.61 137.13 478.506 138.011 477.232L140.38 477.759C140.913 477.878 141.529 477.541 141.748 477.012L142.547 475.084C142.768 474.554 142.57 473.881 142.11 473.589ZM124.242 479.357L123.199 478.926C121.17 477.947 119.533 476.309 118.555 474.279L118.125 473.241C117.757 472.194 117.568 471.091 117.566 469.981C117.566 468.834 117.77 467.737 118.128 466.712L118.553 465.686C119.531 463.655 121.169 462.016 123.199 461.036L124.242 460.604C125.289 460.237 126.39 460.048 127.5 460.046C128.64 460.046 129.731 460.248 130.752 460.602L131.805 461.039C133.829 462.016 135.463 463.649 136.441 465.673L136.879 466.733C137.233 467.752 137.434 468.841 137.434 469.981C137.434 471.12 137.233 472.21 136.879 473.229L136.441 474.289C135.463 476.313 133.829 477.946 131.805 478.923L130.752 479.36C129.706 479.725 128.607 479.913 127.5 479.916C126.39 479.913 125.289 479.724 124.242 479.357Z" fill="#4FAA89"/>
<path d="M135.069 469.981C135.069 465.801 131.681 462.412 127.5 462.412C123.321 462.412 119.931 465.801 119.931 469.981C119.931 474.161 123.321 477.55 127.5 477.55C131.681 477.55 135.069 474.161 135.069 469.981ZM123.716 469.981C123.716 468.977 124.114 468.014 124.824 467.305C125.534 466.595 126.496 466.196 127.5 466.196C128.504 466.196 129.466 466.595 130.176 467.305C130.886 468.014 131.284 468.977 131.284 469.981C131.284 470.984 130.886 471.947 130.176 472.657C129.466 473.366 128.504 473.765 127.5 473.765C126.496 473.765 125.534 473.366 124.824 472.657C124.114 471.947 123.716 470.984 123.716 469.981Z" fill="#4FAA89"/>
<path d="M44.517 546.333V528.879H48.1477V535.441H48.2585C48.4176 535.089 48.6477 534.731 48.9489 534.367C49.2557 533.998 49.6534 533.691 50.142 533.447C50.6364 533.197 51.25 533.072 51.983 533.072C52.9375 533.072 53.8182 533.322 54.625 533.822C55.4318 534.316 56.0767 535.063 56.5597 536.063C57.0426 537.058 57.2841 538.305 57.2841 539.805C57.2841 541.265 57.0483 542.498 56.5767 543.504C56.1108 544.504 55.4744 545.262 54.6676 545.779C53.8665 546.291 52.9688 546.546 51.9744 546.546C51.2699 546.546 50.6705 546.43 50.1761 546.197C49.6875 545.964 49.2869 545.671 48.9744 545.319C48.6619 544.961 48.4233 544.6 48.2585 544.237H48.0966V546.333H44.517ZM48.071 539.788C48.071 540.566 48.179 541.245 48.3949 541.825C48.6108 542.404 48.9233 542.856 49.3324 543.18C49.7415 543.498 50.2386 543.657 50.8239 543.657C51.4148 543.657 51.9148 543.495 52.3239 543.171C52.733 542.842 53.0426 542.387 53.2528 541.808C53.4688 541.222 53.5767 540.549 53.5767 539.788C53.5767 539.032 53.4716 538.367 53.2614 537.793C53.0511 537.22 52.7415 536.771 52.3324 536.447C51.9233 536.123 51.4205 535.961 50.8239 535.961C50.233 535.961 49.733 536.117 49.3239 536.43C48.9205 536.742 48.6108 537.186 48.3949 537.759C48.179 538.333 48.071 539.009 48.071 539.788ZM68.1016 540.759V533.242H71.7322V546.333H68.2464V543.955H68.1101C67.8146 544.722 67.3232 545.339 66.6357 545.805C65.9538 546.271 65.1214 546.504 64.1385 546.504C63.2635 546.504 62.4936 546.305 61.8288 545.907C61.1641 545.509 60.6442 544.944 60.2692 544.211C59.8999 543.478 59.7124 542.6 59.7067 541.578V533.242H63.3374V540.93C63.343 541.703 63.5504 542.313 63.9595 542.762C64.3686 543.211 64.9169 543.436 65.6044 543.436C66.0419 543.436 66.451 543.336 66.8317 543.137C67.2124 542.933 67.5192 542.632 67.7521 542.234C67.9908 541.836 68.1072 541.345 68.1016 540.759ZM74.6364 546.333V533.242H78.267V546.333H74.6364ZM76.4602 531.555C75.9205 531.555 75.4574 531.376 75.071 531.018C74.6903 530.654 74.5 530.22 74.5 529.714C74.5 529.214 74.6903 528.785 75.071 528.427C75.4574 528.063 75.9205 527.882 76.4602 527.882C77 527.882 77.4602 528.063 77.8409 528.427C78.2273 528.785 78.4205 529.214 78.4205 529.714C78.4205 530.22 78.2273 530.654 77.8409 531.018C77.4602 531.376 77 531.555 76.4602 531.555ZM84.8061 528.879V546.333H81.1754V528.879H84.8061ZM94.6776 533.242V535.97H86.794V533.242H94.6776ZM88.5838 530.106H92.2145V542.311C92.2145 542.646 92.2656 542.907 92.3679 543.095C92.4702 543.276 92.6122 543.404 92.794 543.478C92.9815 543.552 93.1974 543.589 93.4418 543.589C93.6122 543.589 93.7827 543.575 93.9531 543.546C94.1236 543.512 94.2543 543.487 94.3452 543.47L94.9162 546.171C94.7344 546.228 94.4787 546.293 94.1491 546.367C93.8196 546.447 93.419 546.495 92.9474 546.512C92.0724 546.546 91.3054 546.43 90.6463 546.163C89.9929 545.896 89.4844 545.481 89.1207 544.918C88.7571 544.356 88.5781 543.646 88.5838 542.788V530.106ZM106.33 546.58C105.495 546.58 104.751 546.436 104.097 546.146C103.444 545.85 102.927 545.416 102.546 544.842C102.171 544.262 101.984 543.541 101.984 542.677C101.984 541.95 102.117 541.339 102.384 540.845C102.651 540.35 103.015 539.953 103.475 539.651C103.935 539.35 104.458 539.123 105.043 538.97C105.634 538.816 106.254 538.708 106.901 538.646C107.663 538.566 108.276 538.492 108.742 538.424C109.208 538.35 109.546 538.242 109.756 538.1C109.967 537.958 110.072 537.748 110.072 537.47V537.418C110.072 536.879 109.901 536.461 109.56 536.166C109.225 535.87 108.748 535.722 108.129 535.722C107.475 535.722 106.955 535.867 106.569 536.157C106.183 536.441 105.927 536.799 105.802 537.231L102.444 536.958C102.614 536.163 102.95 535.475 103.45 534.896C103.95 534.311 104.594 533.862 105.384 533.549C106.18 533.231 107.1 533.072 108.146 533.072C108.873 533.072 109.569 533.157 110.234 533.328C110.904 533.498 111.498 533.762 112.015 534.12C112.538 534.478 112.95 534.938 113.251 535.501C113.552 536.058 113.702 536.725 113.702 537.504V546.333H110.259V544.518H110.157C109.947 544.927 109.665 545.288 109.313 545.6C108.961 545.907 108.538 546.149 108.043 546.325C107.549 546.495 106.978 546.58 106.33 546.58ZM107.37 544.075C107.904 544.075 108.376 543.97 108.785 543.759C109.194 543.543 109.515 543.254 109.748 542.89C109.981 542.526 110.097 542.115 110.097 541.654V540.265C109.984 540.339 109.827 540.407 109.629 540.47C109.435 540.526 109.217 540.58 108.972 540.632C108.728 540.677 108.484 540.72 108.239 540.759C107.995 540.793 107.773 540.825 107.575 540.853C107.148 540.916 106.776 541.015 106.458 541.151C106.14 541.288 105.893 541.472 105.717 541.705C105.54 541.933 105.452 542.217 105.452 542.558C105.452 543.052 105.631 543.43 105.989 543.691C106.353 543.947 106.813 544.075 107.37 544.075ZM125.973 546.333L122.121 533.242H124.754L127.32 542.856H127.447L130.021 533.242H132.655L135.212 542.813H135.339L137.888 533.242H140.521L136.678 546.333H134.078L131.419 536.882H131.223L128.564 546.333H125.973ZM148.183 546.597C146.893 546.597 145.783 546.322 144.851 545.771C143.925 545.214 143.209 544.433 142.703 543.427C142.203 542.416 141.953 541.231 141.953 539.873C141.953 538.532 142.203 537.35 142.703 536.328C143.209 535.305 143.913 534.507 144.817 533.933C145.726 533.359 146.788 533.072 148.004 533.072C148.743 533.072 149.459 533.194 150.152 533.438C150.845 533.683 151.467 534.066 152.018 534.589C152.57 535.112 153.004 535.791 153.322 536.626C153.641 537.455 153.8 538.464 153.8 539.651V540.555H143.393V538.646H151.303C151.303 537.975 151.166 537.382 150.893 536.865C150.621 536.342 150.237 535.93 149.743 535.629C149.254 535.328 148.68 535.177 148.021 535.177C147.305 535.177 146.68 535.353 146.146 535.705C145.618 536.052 145.209 536.507 144.919 537.069C144.635 537.626 144.493 538.231 144.493 538.884V540.376C144.493 541.251 144.646 541.995 144.953 542.609C145.266 543.222 145.7 543.691 146.257 544.015C146.814 544.333 147.464 544.492 148.209 544.492C148.692 544.492 149.132 544.424 149.53 544.288C149.928 544.146 150.271 543.936 150.561 543.657C150.851 543.379 151.072 543.035 151.226 542.626L153.638 543.061C153.445 543.771 153.098 544.393 152.598 544.927C152.104 545.455 151.482 545.867 150.732 546.163C149.987 546.453 149.138 546.597 148.183 546.597ZM156.832 546.333V528.879H159.38V535.365H159.533C159.681 535.092 159.894 534.776 160.173 534.418C160.451 534.061 160.837 533.748 161.332 533.481C161.826 533.208 162.479 533.072 163.292 533.072C164.349 533.072 165.292 533.339 166.121 533.873C166.951 534.407 167.602 535.177 168.073 536.183C168.55 537.188 168.789 538.399 168.789 539.813C168.789 541.228 168.553 542.441 168.082 543.453C167.61 544.458 166.962 545.234 166.138 545.779C165.315 546.319 164.374 546.589 163.317 546.589C162.522 546.589 161.871 546.455 161.366 546.188C160.866 545.921 160.474 545.609 160.19 545.251C159.906 544.893 159.687 544.575 159.533 544.296H159.32V546.333H156.832ZM159.329 539.788C159.329 540.708 159.462 541.515 159.729 542.208C159.996 542.901 160.383 543.444 160.888 543.836C161.394 544.222 162.013 544.416 162.746 544.416C163.508 544.416 164.144 544.214 164.656 543.811C165.167 543.401 165.553 542.847 165.815 542.149C166.082 541.45 166.215 540.663 166.215 539.788C166.215 538.924 166.085 538.149 165.823 537.461C165.567 536.774 165.181 536.231 164.664 535.833C164.153 535.436 163.513 535.237 162.746 535.237C162.008 535.237 161.383 535.427 160.871 535.808C160.366 536.188 159.982 536.72 159.721 537.401C159.46 538.083 159.329 538.879 159.329 539.788ZM181.46 536.438L179.151 536.847C179.054 536.552 178.901 536.271 178.69 536.004C178.486 535.737 178.207 535.518 177.855 535.347C177.503 535.177 177.063 535.092 176.534 535.092C175.813 535.092 175.21 535.254 174.727 535.578C174.244 535.896 174.003 536.308 174.003 536.813C174.003 537.251 174.165 537.603 174.489 537.87C174.813 538.137 175.335 538.356 176.057 538.526L178.136 539.004C179.341 539.282 180.239 539.711 180.83 540.291C181.42 540.87 181.716 541.623 181.716 542.549C181.716 543.333 181.489 544.032 181.034 544.646C180.585 545.254 179.957 545.731 179.151 546.078C178.349 546.424 177.42 546.597 176.364 546.597C174.898 546.597 173.702 546.285 172.776 545.66C171.849 545.029 171.281 544.134 171.071 542.975L173.534 542.6C173.688 543.242 174.003 543.728 174.48 544.058C174.957 544.382 175.58 544.543 176.347 544.543C177.182 544.543 177.849 544.37 178.349 544.024C178.849 543.671 179.099 543.242 179.099 542.737C179.099 542.328 178.946 541.984 178.639 541.705C178.338 541.427 177.875 541.217 177.25 541.075L175.034 540.589C173.813 540.311 172.909 539.867 172.324 539.259C171.744 538.651 171.455 537.882 171.455 536.95C171.455 536.177 171.67 535.501 172.102 534.921C172.534 534.342 173.131 533.89 173.892 533.566C174.653 533.237 175.526 533.072 176.509 533.072C177.923 533.072 179.037 533.379 179.849 533.992C180.662 534.6 181.199 535.416 181.46 536.438ZM184.518 546.333V533.242H187.066V546.333H184.518ZM185.805 531.222C185.362 531.222 184.981 531.075 184.663 530.779C184.35 530.478 184.194 530.12 184.194 529.705C184.194 529.285 184.35 528.927 184.663 528.632C184.981 528.33 185.362 528.18 185.805 528.18C186.248 528.18 186.626 528.33 186.938 528.632C187.256 528.927 187.415 529.285 187.415 529.705C187.415 530.12 187.256 530.478 186.938 530.779C186.626 531.075 186.248 531.222 185.805 531.222ZM196.605 533.242V535.288H189.455V533.242H196.605ZM191.372 530.106H193.92V542.49C193.92 542.984 193.994 543.356 194.142 543.606C194.29 543.85 194.48 544.018 194.713 544.109C194.952 544.194 195.21 544.237 195.489 544.237C195.693 544.237 195.872 544.222 196.026 544.194C196.179 544.166 196.298 544.143 196.384 544.126L196.844 546.231C196.696 546.288 196.486 546.345 196.213 546.401C195.94 546.464 195.599 546.498 195.19 546.504C194.52 546.515 193.895 546.396 193.315 546.146C192.736 545.896 192.267 545.509 191.909 544.987C191.551 544.464 191.372 543.808 191.372 543.018V530.106ZM204.925 546.597C203.636 546.597 202.525 546.322 201.593 545.771C200.667 545.214 199.951 544.433 199.445 543.427C198.945 542.416 198.695 541.231 198.695 539.873C198.695 538.532 198.945 537.35 199.445 536.328C199.951 535.305 200.656 534.507 201.559 533.933C202.468 533.359 203.531 533.072 204.746 533.072C205.485 533.072 206.201 533.194 206.894 533.438C207.587 533.683 208.21 534.066 208.761 534.589C209.312 535.112 209.746 535.791 210.065 536.626C210.383 537.455 210.542 538.464 210.542 539.651V540.555H200.136V538.646H208.045C208.045 537.975 207.908 537.382 207.636 536.865C207.363 536.342 206.979 535.93 206.485 535.629C205.996 535.328 205.423 535.177 204.763 535.177C204.048 535.177 203.423 535.353 202.888 535.705C202.36 536.052 201.951 536.507 201.661 537.069C201.377 537.626 201.235 538.231 201.235 538.884V540.376C201.235 541.251 201.388 541.995 201.695 542.609C202.008 543.222 202.442 543.691 202.999 544.015C203.556 544.333 204.207 544.492 204.951 544.492C205.434 544.492 205.874 544.424 206.272 544.288C206.67 544.146 207.013 543.936 207.303 543.657C207.593 543.379 207.815 543.035 207.968 542.626L210.38 543.061C210.187 543.771 209.84 544.393 209.34 544.927C208.846 545.455 208.224 545.867 207.474 546.163C206.729 546.453 205.88 546.597 204.925 546.597Z" fill="#313131"/>
<rect x="43" y="577.333" width="169" height="2" fill="#4FAA89"/>
<circle cx="127.5" cy="687" r="34" fill="#EEEEEE"/>
<path d="M122.362 685.741L126.63 688.943C126.895 689.142 127.225 689.233 127.553 689.198C127.882 689.164 128.186 689.006 128.403 688.757L137.56 680.263" stroke="#4FAA89" stroke-width="3" stroke-linecap="round"/>
<path d="M138.085 688.361C138.085 690.825 137.313 693.228 135.878 695.23C134.443 697.233 132.416 698.736 130.083 699.528C127.75 700.32 125.227 700.362 122.869 699.646C120.511 698.931 118.437 697.495 116.937 695.54C115.437 693.585 114.587 691.21 114.506 688.747C114.426 686.284 115.119 683.858 116.488 681.81C117.857 679.761 119.833 678.193 122.139 677.325C124.445 676.457 126.965 676.333 129.345 676.971" stroke="#4FAA89" stroke-width="3" stroke-linecap="round"/>
<path d="M47.4176 764V746.545H58.3608V748.812H50.0511V754.131H57.7898V756.389H50.0511V761.733H58.4631V764H47.4176ZM64.2223 756.227V764H61.674V750.909H64.12V753.04H64.282C64.5831 752.347 65.0547 751.79 65.6967 751.369C66.3445 750.949 67.1598 750.739 68.1428 750.739C69.0348 750.739 69.8161 750.926 70.4865 751.301C71.157 751.67 71.6768 752.222 72.0462 752.955C72.4155 753.687 72.6001 754.594 72.6001 755.673V764H70.0518V755.98C70.0518 755.031 69.8047 754.29 69.3104 753.756C68.8161 753.216 68.1371 752.946 67.2734 752.946C66.6825 752.946 66.157 753.074 65.6967 753.33C65.2422 753.585 64.8814 753.96 64.6143 754.455C64.353 754.943 64.2223 755.534 64.2223 756.227ZM76.0178 750.909H78.5661V764.852C78.5661 765.727 78.407 766.466 78.0888 767.068C77.7763 767.67 77.3104 768.128 76.6911 768.44C76.0774 768.753 75.3189 768.909 74.4155 768.909C74.3246 768.909 74.2393 768.909 74.1598 768.909C74.0746 768.909 73.9865 768.906 73.8956 768.901V766.71C73.9751 766.71 74.0462 766.71 74.1087 766.71C74.1655 766.71 74.2308 766.71 74.3047 766.71C74.907 766.71 75.3416 766.548 75.6087 766.224C75.8814 765.906 76.0178 765.443 76.0178 764.835V750.909ZM77.2791 748.889C76.8359 748.889 76.4553 748.741 76.1371 748.446C75.8246 748.145 75.6683 747.787 75.6683 747.372C75.6683 746.952 75.8246 746.594 76.1371 746.298C76.4553 745.997 76.8359 745.847 77.2791 745.847C77.7223 745.847 78.1001 745.997 78.4126 746.298C78.7308 746.594 78.8899 746.952 78.8899 747.372C78.8899 747.787 78.7308 748.145 78.4126 748.446C78.1001 748.741 77.7223 748.889 77.2791 748.889ZM87.5085 764.264C86.2813 764.264 85.2102 763.983 84.2955 763.42C83.3807 762.858 82.6705 762.071 82.1648 761.06C81.6591 760.048 81.4062 758.866 81.4062 757.514C81.4062 756.156 81.6591 754.969 82.1648 753.952C82.6705 752.935 83.3807 752.145 84.2955 751.582C85.2102 751.02 86.2813 750.739 87.5085 750.739C88.7358 750.739 89.8068 751.02 90.7216 751.582C91.6364 752.145 92.3466 752.935 92.8523 753.952C93.358 754.969 93.6108 756.156 93.6108 757.514C93.6108 758.866 93.358 760.048 92.8523 761.06C92.3466 762.071 91.6364 762.858 90.7216 763.42C89.8068 763.983 88.7358 764.264 87.5085 764.264ZM87.517 762.125C88.3125 762.125 88.9716 761.915 89.4943 761.494C90.017 761.074 90.4034 760.514 90.6534 759.815C90.9091 759.116 91.0369 758.347 91.0369 757.506C91.0369 756.67 90.9091 755.903 90.6534 755.205C90.4034 754.5 90.017 753.935 89.4943 753.509C88.9716 753.082 88.3125 752.869 87.517 752.869C86.7159 752.869 86.0511 753.082 85.5227 753.509C85 753.935 84.6108 754.5 84.3551 755.205C84.1051 755.903 83.9801 756.67 83.9801 757.506C83.9801 758.347 84.1051 759.116 84.3551 759.815C84.6108 760.514 85 761.074 85.5227 761.494C86.0511 761.915 86.7159 762.125 87.517 762.125ZM97.6207 768.909C97.2401 768.909 96.8935 768.878 96.581 768.815C96.2685 768.759 96.0355 768.696 95.8821 768.628L96.4957 766.54C96.9616 766.665 97.3764 766.719 97.7401 766.702C98.1037 766.685 98.4247 766.548 98.7031 766.293C98.9872 766.037 99.2372 765.619 99.4531 765.04L99.7685 764.17L94.9787 750.909H97.706L101.021 761.068H101.158L104.473 750.909H107.209L101.814 765.747C101.564 766.429 101.246 767.006 100.859 767.477C100.473 767.955 100.013 768.313 99.4787 768.551C98.9446 768.79 98.3253 768.909 97.6207 768.909ZM119.765 764.29C118.935 764.29 118.185 764.136 117.515 763.83C116.844 763.517 116.313 763.065 115.921 762.474C115.535 761.884 115.342 761.159 115.342 760.301C115.342 759.562 115.484 758.955 115.768 758.477C116.052 758 116.435 757.622 116.918 757.344C117.401 757.065 117.941 756.855 118.538 756.713C119.134 756.571 119.742 756.463 120.362 756.389C121.146 756.298 121.782 756.224 122.271 756.168C122.759 756.105 123.114 756.006 123.336 755.869C123.558 755.733 123.668 755.511 123.668 755.205V755.145C123.668 754.401 123.458 753.824 123.038 753.415C122.623 753.006 122.004 752.801 121.18 752.801C120.322 752.801 119.646 752.991 119.151 753.372C118.663 753.747 118.325 754.165 118.137 754.625L115.742 754.08C116.026 753.284 116.441 752.642 116.987 752.153C117.538 751.659 118.171 751.301 118.887 751.08C119.603 750.852 120.356 750.739 121.146 750.739C121.668 750.739 122.222 750.801 122.808 750.926C123.398 751.045 123.95 751.267 124.461 751.591C124.978 751.915 125.401 752.378 125.731 752.98C126.06 753.577 126.225 754.352 126.225 755.307V764H123.737V762.21H123.634C123.469 762.54 123.222 762.864 122.893 763.182C122.563 763.5 122.14 763.764 121.623 763.974C121.106 764.185 120.487 764.29 119.765 764.29ZM120.319 762.244C121.023 762.244 121.626 762.105 122.126 761.827C122.631 761.548 123.015 761.185 123.276 760.736C123.543 760.281 123.677 759.795 123.677 759.278V757.591C123.586 757.682 123.41 757.767 123.148 757.847C122.893 757.92 122.6 757.986 122.271 758.043C121.941 758.094 121.62 758.142 121.308 758.188C120.995 758.227 120.734 758.261 120.523 758.29C120.029 758.352 119.577 758.457 119.168 758.605C118.765 758.753 118.441 758.966 118.197 759.244C117.958 759.517 117.839 759.881 117.839 760.335C117.839 760.966 118.072 761.443 118.538 761.767C119.004 762.085 119.597 762.244 120.319 762.244ZM135.707 764V750.909H139.227V753.193H139.363C139.602 752.381 140.002 751.767 140.565 751.352C141.127 750.932 141.775 750.722 142.508 750.722C142.69 750.722 142.886 750.733 143.096 750.756C143.306 750.778 143.491 750.81 143.65 750.849V754.071C143.479 754.02 143.244 753.974 142.942 753.935C142.641 753.895 142.366 753.875 142.116 753.875C141.582 753.875 141.104 753.991 140.684 754.224C140.269 754.452 139.94 754.77 139.695 755.179C139.457 755.588 139.337 756.06 139.337 756.594V764H135.707ZM150.884 764.256C149.537 764.256 148.378 763.983 147.406 763.438C146.44 762.886 145.696 762.108 145.173 761.102C144.651 760.091 144.389 758.895 144.389 757.514C144.389 756.168 144.651 754.986 145.173 753.969C145.696 752.952 146.432 752.159 147.381 751.591C148.335 751.023 149.455 750.739 150.739 750.739C151.602 750.739 152.406 750.878 153.151 751.156C153.901 751.429 154.554 751.841 155.111 752.392C155.673 752.943 156.111 753.636 156.423 754.472C156.736 755.301 156.892 756.273 156.892 757.386V758.384H145.838V756.134H153.474C153.474 755.611 153.361 755.148 153.134 754.744C152.906 754.341 152.591 754.026 152.188 753.798C151.79 753.565 151.327 753.449 150.798 753.449C150.247 753.449 149.759 753.577 149.332 753.832C148.912 754.082 148.582 754.42 148.344 754.847C148.105 755.267 147.983 755.736 147.977 756.253V758.392C147.977 759.04 148.097 759.599 148.335 760.071C148.58 760.543 148.923 760.906 149.366 761.162C149.81 761.418 150.335 761.545 150.943 761.545C151.347 761.545 151.716 761.489 152.051 761.375C152.386 761.261 152.673 761.091 152.912 760.864C153.151 760.636 153.332 760.358 153.457 760.028L156.815 760.25C156.645 761.057 156.295 761.761 155.767 762.364C155.244 762.96 154.568 763.426 153.739 763.761C152.915 764.091 151.963 764.256 150.884 764.256ZM170.153 754.642L166.83 754.847C166.773 754.562 166.651 754.307 166.463 754.08C166.276 753.847 166.028 753.662 165.722 753.526C165.42 753.384 165.06 753.312 164.639 753.312C164.077 753.312 163.602 753.432 163.216 753.67C162.83 753.903 162.636 754.216 162.636 754.608C162.636 754.92 162.761 755.185 163.011 755.401C163.261 755.616 163.69 755.79 164.298 755.92L166.668 756.398C167.94 756.659 168.889 757.08 169.514 757.659C170.139 758.239 170.452 759 170.452 759.943C170.452 760.801 170.199 761.554 169.693 762.202C169.193 762.849 168.506 763.355 167.631 763.719C166.761 764.077 165.759 764.256 164.622 764.256C162.889 764.256 161.509 763.895 160.48 763.173C159.457 762.446 158.858 761.457 158.682 760.207L162.253 760.02C162.361 760.548 162.622 760.952 163.037 761.23C163.452 761.503 163.983 761.639 164.631 761.639C165.267 761.639 165.778 761.517 166.165 761.273C166.557 761.023 166.756 760.702 166.761 760.31C166.756 759.98 166.616 759.71 166.344 759.5C166.071 759.284 165.651 759.119 165.082 759.006L162.815 758.554C161.537 758.298 160.585 757.855 159.96 757.224C159.341 756.594 159.031 755.79 159.031 754.812C159.031 753.972 159.259 753.247 159.713 752.639C160.173 752.031 160.818 751.562 161.648 751.233C162.483 750.903 163.46 750.739 164.58 750.739C166.233 750.739 167.534 751.088 168.483 751.787C169.438 752.486 169.994 753.437 170.153 754.642ZM181.133 758.426V750.909H184.763V764H181.278V761.622H181.141C180.846 762.389 180.354 763.006 179.667 763.472C178.985 763.937 178.153 764.17 177.17 764.17C176.295 764.17 175.525 763.972 174.86 763.574C174.195 763.176 173.675 762.611 173.3 761.878C172.931 761.145 172.744 760.267 172.738 759.244V750.909H176.369V758.597C176.374 759.369 176.582 759.98 176.991 760.429C177.4 760.878 177.948 761.102 178.636 761.102C179.073 761.102 179.482 761.003 179.863 760.804C180.244 760.599 180.55 760.298 180.783 759.901C181.022 759.503 181.138 759.011 181.133 758.426ZM191.298 746.545V764H187.668V746.545H191.298ZM201.17 750.909V753.636H193.286V750.909H201.17ZM195.076 747.773H198.707V759.977C198.707 760.312 198.758 760.574 198.86 760.761C198.962 760.943 199.104 761.071 199.286 761.145C199.474 761.219 199.69 761.256 199.934 761.256C200.104 761.256 200.275 761.241 200.445 761.213C200.616 761.179 200.746 761.153 200.837 761.136L201.408 763.838C201.227 763.895 200.971 763.96 200.641 764.034C200.312 764.114 199.911 764.162 199.44 764.179C198.565 764.213 197.798 764.097 197.138 763.83C196.485 763.562 195.977 763.148 195.613 762.585C195.249 762.023 195.07 761.312 195.076 760.455V747.773ZM207.012 746.545L206.79 758.98H204.43L204.208 746.545H207.012ZM205.614 764.162C205.143 764.162 204.739 763.997 204.404 763.668C204.069 763.332 203.904 762.929 203.91 762.457C203.904 761.991 204.069 761.594 204.404 761.264C204.739 760.929 205.143 760.761 205.614 760.761C206.075 760.761 206.472 760.929 206.808 761.264C207.143 761.594 207.313 761.991 207.319 762.457C207.313 762.77 207.231 763.057 207.072 763.318C206.918 763.574 206.714 763.778 206.458 763.932C206.202 764.085 205.921 764.162 205.614 764.162Z" fill="#313131"/>
<rect x="45.5" y="795" width="164" height="2" fill="#4FAA89"/>
</svg>
