<svg width="51" height="50" viewBox="0 0 51 50" fill="none" xmlns="http://www.w3.org/2000/svg">
<path d="M25.9604 49.9427C26.0959 49.9376 26.2314 49.9322 26.3666 49.925C26.4806 49.919 26.5943 49.9117 26.708 49.9042C26.8127 49.8973 26.9173 49.8897 27.0219 49.8814C27.1534 49.8711 27.2847 49.8601 27.4157 49.8478C27.4921 49.8406 27.5682 49.8324 27.6445 49.8243C28.3761 49.7486 29.1005 49.6412 29.8172 49.5021C29.8682 49.4922 29.9193 49.4827 29.9702 49.4725C30.1169 49.4432 30.2632 49.412 30.4093 49.3799C30.4886 49.3626 30.5677 49.3448 30.6468 49.3266C30.7724 49.2978 30.898 49.2684 31.0231 49.2375C31.1457 49.2075 31.2676 49.1756 31.3896 49.1436C31.4736 49.1215 31.5579 49.1004 31.6416 49.0774C35.7798 47.9474 39.5729 45.7585 42.6884 42.6465C43.0332 42.302 43.3654 41.9484 43.6875 41.5878C43.7011 41.5725 43.7145 41.5572 43.728 41.542C43.872 41.38 44.0136 41.2165 44.1529 41.0514C44.1644 41.0377 44.1759 41.0242 44.1873 41.0105C47.9582 36.5232 50.0132 30.9106 50.0132 24.9812C50.0132 19.0503 47.957 13.4364 44.1843 8.94841C44.1749 8.93723 44.1654 8.92604 44.156 8.91485C44.0143 8.7468 43.8702 8.58044 43.7237 8.41567C43.7125 8.403 43.7012 8.39023 43.69 8.37756C43.367 8.01592 43.034 7.66114 42.6882 7.31576C39.5723 4.20351 35.7787 2.01446 31.6399 0.884465C31.5585 0.862087 31.4765 0.841609 31.3949 0.820075C31.2705 0.787458 31.1462 0.755052 31.0212 0.724335C30.8976 0.693828 30.7736 0.664906 30.6495 0.636405C30.5686 0.617827 30.4877 0.599566 30.4065 0.581832C30.2618 0.550059 30.1169 0.519237 29.9714 0.490103C29.9191 0.479547 29.8664 0.469836 29.8138 0.459597C29.2501 0.350345 28.6816 0.25946 28.1087 0.189264C28.1064 0.189053 28.1043 0.188737 28.1022 0.18842C27.9504 0.169842 27.798 0.153902 27.6456 0.138069C27.5687 0.130047 27.492 0.121813 27.4149 0.114424C27.2841 0.102074 27.1532 0.0910959 27.0219 0.0808568C26.9172 0.0725178 26.8124 0.0650233 26.7075 0.0580565C26.5939 0.0505619 26.4803 0.0432784 26.3663 0.0372616C26.2311 0.0300837 26.0956 0.0247003 25.9598 0.0196336C25.8709 0.0163613 25.7823 0.0122446 25.6933 0.00992238C25.4644 0.00380005 25.2353 0 25.0055 0C24.7757 0 24.5464 0.00380005 24.3176 0.00992238C24.2288 0.0122446 24.1404 0.0163613 24.0519 0.0196336C23.9158 0.0247003 23.7799 0.0300837 23.6441 0.0372616C23.5308 0.0432784 23.4178 0.0504564 23.3047 0.057951C23.1989 0.0650233 23.0931 0.0726234 22.9875 0.081068C22.8574 0.0913071 22.7274 0.10218 22.5978 0.114319C22.5189 0.121813 22.4401 0.130258 22.3614 0.138491C22.2111 0.154114 22.0607 0.169842 21.9111 0.188103C21.9025 0.189159 21.8941 0.190425 21.8855 0.191481C21.3223 0.260832 20.7636 0.350134 20.2092 0.45738C20.1509 0.468569 20.0924 0.479547 20.0343 0.491158C19.8936 0.519448 19.7533 0.549215 19.6131 0.579932C19.5259 0.598932 19.4389 0.618566 19.3519 0.638622C19.2335 0.665856 19.1153 0.693512 18.9974 0.72254C18.8628 0.75558 18.7287 0.790414 18.5948 0.82567C18.5225 0.844776 18.4499 0.862931 18.3777 0.882671C14.2367 2.01213 10.441 4.20171 7.32389 7.31565C6.97776 7.66146 6.64441 8.01655 6.3212 8.37862C6.31075 8.39033 6.3004 8.40215 6.28995 8.41387C6.14154 8.58076 5.99566 8.74933 5.85221 8.91949C5.84534 8.92772 5.83838 8.93585 5.83141 8.94409C2.0571 13.4326 0 19.0481 0 24.9809C0 30.9162 2.05868 36.5338 5.83595 41.0232C5.83954 41.0275 5.84323 41.0318 5.84693 41.0362C5.99397 41.2106 6.14354 41.3836 6.29576 41.5547C6.30294 41.5628 6.31022 41.5709 6.3175 41.579C6.64188 41.9426 6.97639 42.2991 7.32389 42.6462C10.441 45.7601 14.2366 47.9497 18.3777 49.0791C18.4497 49.0989 18.5221 49.1169 18.5944 49.136C18.7285 49.1713 18.8627 49.2062 18.9975 49.2393C19.1152 49.2683 19.2333 49.2958 19.3515 49.3232C19.4388 49.3431 19.5261 49.3628 19.6135 49.382C19.7533 49.4127 19.8933 49.4423 20.0337 49.4706C20.0924 49.4823 20.1514 49.4934 20.2102 49.5047C20.7628 49.6115 21.3197 49.7005 21.8812 49.7698C21.8913 49.7711 21.9015 49.7725 21.9117 49.7739C22.0609 49.792 22.2105 49.8077 22.3602 49.8233C22.4396 49.8315 22.519 49.8401 22.5985 49.8476C22.7278 49.8597 22.8574 49.8707 22.9871 49.8808C23.0931 49.8892 23.1993 49.8968 23.3055 49.9039C23.4182 49.9113 23.531 49.9186 23.644 49.9245C23.78 49.9317 23.9162 49.9372 24.0526 49.9422C24.141 49.9455 24.2291 49.9495 24.3177 49.952C24.5465 49.9582 24.7758 49.9619 25.0056 49.9619C25.0058 49.9619 25.0059 49.9619 25.0061 49.9619C25.2357 49.9619 25.4647 49.9581 25.6932 49.952C25.7825 49.95 25.8714 49.9458 25.9604 49.9427ZM1.49068 25.7201H13.3749C13.4121 28.5406 13.662 31.2822 14.1083 33.8536C13.9742 33.8978 13.8397 33.9412 13.7065 33.9873C10.6314 35.0478 7.8769 36.5575 5.68331 38.3747C3.16566 34.7612 1.63656 30.412 1.49068 25.7201ZM5.68331 11.5877C7.8769 13.4052 10.6313 14.9147 13.7064 15.9753C13.8397 16.0213 13.9742 16.0647 14.1083 16.1089C13.6619 18.6802 13.4121 21.4218 13.3749 24.2422H1.49068C1.63656 19.5505 3.16566 15.2013 5.68331 11.5877ZM20.4564 1.92062C19.0256 3.19744 17.7252 5.08955 16.6256 7.53563C15.6846 9.62915 14.9336 12.0296 14.3907 14.6329C11.3859 13.6219 8.70152 12.1868 6.56525 10.4016C9.97929 6.10153 14.8657 3.01915 20.4564 1.92062ZM48.5227 24.2423H36.6343C36.5971 21.4223 36.3472 18.681 35.9009 16.11C36.0359 16.0654 36.1714 16.0216 36.3057 15.9754C39.3803 14.9149 42.1351 13.4053 44.3297 11.5876C46.8475 15.2011 48.3768 19.5504 48.5227 24.2423ZM44.3296 38.3749C42.1351 36.5572 39.3803 35.0476 36.3057 33.9873C36.1714 33.941 36.0359 33.8971 35.9008 33.8527C36.3472 31.2816 36.5971 28.5403 36.6342 25.7202H48.5226C48.3768 30.412 46.8476 34.7612 44.3296 38.3749ZM17.9736 41.8209C17.0584 39.785 16.3307 37.4401 15.8078 34.8909C18.4647 34.1384 21.3316 33.7067 24.2667 33.6445V48.4172C21.9537 48.0004 19.6942 45.6487 17.9736 41.8209ZM25.7445 25.7201H35.1564C35.1203 28.3912 34.8885 30.9847 34.4765 33.4188C31.7056 32.6452 28.7795 32.224 25.7445 32.1654V25.7201ZM25.7445 24.2423V17.7972C28.7795 17.7386 31.7056 17.3174 34.4765 16.5437C34.8885 18.9778 35.1204 21.5712 35.1564 24.2423H25.7445ZM25.7445 16.3181V1.54536C28.056 1.96221 30.3146 4.31402 32.0352 8.14164C32.9506 10.1779 33.6784 12.523 34.2013 15.0723C31.5447 15.8244 28.6787 16.2559 25.7445 16.3181ZM24.2667 16.3181C21.3315 16.2559 18.4647 15.8241 15.8077 15.0716C16.3305 12.5224 17.0583 10.1774 17.9735 8.14153C19.6942 4.3136 21.9536 1.96189 24.2667 1.54515V16.3181ZM24.2667 17.7972V24.2423H14.8528C14.8889 21.5709 15.1207 18.9771 15.5326 16.5429C18.3043 17.3171 21.2312 17.7386 24.2667 17.7972ZM24.2667 25.7201V32.1655C21.2312 32.2241 18.3043 32.6456 15.5327 33.4198C15.1207 30.9854 14.8889 28.3917 14.8528 25.7202H24.2667V25.7201ZM25.7445 33.6445C28.6787 33.7067 31.5447 34.1382 34.2012 34.8903C33.6784 37.4396 32.9505 39.7846 32.0351 41.8209C30.3145 45.6485 28.056 48.0002 25.7444 48.417V33.6445H25.7445ZM33.383 42.4269C34.3243 40.3329 35.0753 37.9324 35.6183 35.329C38.6244 36.3401 41.3101 37.7754 43.4477 39.561C40.0326 43.8618 35.1448 46.9443 29.5524 48.0425C30.9831 46.7656 32.2833 44.8732 33.383 42.4269ZM43.4476 10.4015C41.3101 12.1872 38.6244 13.6225 35.6183 14.6335C35.0753 12.0303 34.3243 9.62958 33.383 7.53563C32.2833 5.08924 30.9831 3.1968 29.5524 1.91998C35.1447 3.0181 40.0326 6.10069 43.4476 10.4015ZM14.3907 35.3296C14.9337 37.9328 15.6846 40.3331 16.6256 42.4268C17.7252 44.8729 19.0254 46.765 20.4563 48.0418C14.8657 46.9432 9.97939 43.8609 6.56525 39.5608C8.70141 37.7757 11.3858 36.3407 14.3907 35.3296Z" fill="#4FAA89"/>
</svg>
