<svg width="354" height="75" viewBox="0 0 354 75" fill="none" xmlns="http://www.w3.org/2000/svg">
<path d="M12.5583 73.5H0.910556L39.1563 0.772725H51.8339L65.9319 73.5H54.2841L43.6662 13.983H43.0981L12.5583 73.5ZM19.2344 45.0199H57.0185L55.456 54.2528H17.6719L19.2344 45.0199ZM276.447 0.772725L264.373 73.5H254.288L226.198 20.1619H225.559L216.646 73.5H205.673L217.746 0.772725H227.903L256.028 54.1818H256.702L265.58 0.772725H276.447Z" fill="#279472"/>
<path d="M89.9542 74.6364C85.03 74.6364 80.9699 73.4171 77.7738 70.9787C74.5778 68.5402 72.3406 65.2022 71.0622 60.9645C69.8075 56.7031 69.6299 51.8736 70.5295 46.4759C71.4291 40.9834 73.2402 36.1184 75.9628 31.8807C78.6853 27.6193 82.047 24.2812 86.048 21.8665C90.0726 19.428 94.4642 18.2088 99.2227 18.2088C102.892 18.2088 106.088 18.919 108.811 20.3395C111.533 21.7363 113.64 23.7131 115.132 26.2699C116.623 28.803 117.333 31.7623 117.262 35.1477H110.87C110.705 31.9991 109.557 29.3475 107.426 27.1932C105.319 25.0388 102.336 23.9616 98.477 23.9616C94.9495 23.9616 91.6825 24.9086 88.6758 26.8026C85.6692 28.6728 83.1242 31.2888 81.0409 34.6506C78.9812 37.9886 77.5963 41.8594 76.8861 46.2628C76.1285 50.6899 76.1995 54.608 77.0991 58.017C77.9987 61.4025 79.6086 64.054 81.9287 65.9716C84.2724 67.8892 87.2317 68.848 90.8065 68.848C93.245 68.848 95.5414 68.3982 97.6957 67.4986C99.8501 66.5753 101.756 65.2732 103.413 63.5923C105.07 61.8878 106.337 59.8873 107.213 57.5909H113.605C112.539 60.9053 110.859 63.8409 108.562 66.3977C106.289 68.9545 103.567 70.9669 100.395 72.4347C97.2222 73.9025 93.7421 74.6364 89.9542 74.6364ZM147.029 18.9545L146.141 24.4588H120.076L120.999 18.9545H147.029ZM131.262 5.88636H137.618L128.74 59.2599C128.362 61.5327 128.456 63.3201 129.025 64.6222C129.593 65.9006 130.469 66.812 131.652 67.3565C132.836 67.8774 134.138 68.1378 135.559 68.1378C136.387 68.1378 137.097 68.0904 137.689 67.9957C138.305 67.8774 138.849 67.759 139.323 67.6406L139.784 73.358C139.098 73.5947 138.281 73.8078 137.334 73.9972C136.387 74.2102 135.251 74.3168 133.925 74.3168C131.605 74.3168 129.463 73.8078 127.498 72.7898C125.533 71.7718 124.041 70.2566 123.023 68.2443C122.005 66.232 121.733 63.7344 122.206 60.7514L131.262 5.88636ZM144.364 73.5L153.455 18.9545H159.812L150.721 73.5H144.364ZM158.924 9.47301C157.598 9.47301 156.474 9.0232 155.55 8.12358C154.651 7.22395 154.213 6.13494 154.237 4.85653C154.284 3.64914 154.769 2.60748 155.693 1.73153C156.639 0.831911 157.752 0.3821 159.031 0.3821C160.356 0.3821 161.481 0.843748 162.404 1.76704C163.327 2.66666 163.765 3.75568 163.718 5.03409C163.694 6.24148 163.209 7.28314 162.262 8.15909C161.315 9.03503 160.202 9.47301 158.924 9.47301ZM210.752 18.9545L181.739 73.5H174.992L164.161 18.9545H170.731L179.253 65.1548H179.715L203.614 18.9545H210.752ZM294.645 74.6364C289.555 74.6364 285.353 73.4527 282.039 71.0852C278.724 68.6941 276.404 65.3916 275.079 61.1776C273.753 56.9399 273.552 52.063 274.475 46.5469C275.398 41.0545 277.221 36.1776 279.944 31.9162C282.666 27.6312 286.028 24.2812 290.029 21.8665C294.03 19.428 298.374 18.2088 303.061 18.2088C306.021 18.2088 308.791 18.7533 311.371 19.8423C313.952 20.9077 316.141 22.553 317.941 24.7784C319.764 26.9801 321.03 29.7618 321.74 33.1236C322.451 36.4616 322.427 40.4152 321.669 44.9844L321.172 48.1094H278.559L279.446 42.5341H315.633C316.224 39.0303 316.059 35.8816 315.135 33.0881C314.212 30.2945 312.638 28.081 310.412 26.4474C308.211 24.7902 305.476 23.9616 302.209 23.9616C298.871 23.9616 295.711 24.8968 292.728 26.767C289.768 28.6373 287.259 31.0758 285.199 34.0824C283.163 37.0653 281.849 40.2495 281.258 43.6349L280.547 47.8253C279.79 52.4418 279.884 56.3125 280.831 59.4375C281.778 62.5388 283.495 64.8826 285.981 66.4688C288.466 68.0549 291.65 68.848 295.533 68.848C298.137 68.848 300.493 68.4455 302.6 67.6406C304.707 66.8357 306.542 65.7585 308.104 64.4091C309.667 63.036 310.921 61.5327 311.868 59.8991L317.515 61.8523C316.307 64.1487 314.603 66.2675 312.401 68.2088C310.223 70.1501 307.631 71.7126 304.624 72.8963C301.641 74.0563 298.315 74.6364 294.645 74.6364ZM353.416 18.9545L352.528 24.4588H326.462L327.386 18.9545H353.416ZM337.648 5.88636H344.005L335.127 59.2599C334.748 61.5327 334.843 63.3201 335.411 64.6222C335.979 65.9006 336.855 66.812 338.039 67.3565C339.223 67.8774 340.525 68.1378 341.945 68.1378C342.774 68.1378 343.484 68.0904 344.076 67.9957C344.692 67.8774 345.236 67.759 345.71 67.6406L346.171 73.358C345.485 73.5947 344.668 73.8078 343.721 73.9972C342.774 74.2102 341.638 74.3168 340.312 74.3168C337.992 74.3168 335.849 73.8078 333.884 72.7898C331.919 71.7718 330.428 70.2566 329.41 68.2443C328.392 66.232 328.12 63.7344 328.593 60.7514L337.648 5.88636Z" fill="white"/>
</svg>
