<svg width="52" height="53" viewBox="0 0 52 53" fill="none" xmlns="http://www.w3.org/2000/svg">
<path d="M51 26.5C51 33.1304 48.3661 39.4893 43.6777 44.1777C38.9893 48.8661 32.6304 51.5 26 51.5C19.3696 51.5 13.0107 48.8661 8.32233 44.1777C3.63392 39.4893 1 33.1304 1 26.5M51 26.5C51 19.8696 48.3661 13.5107 43.6777 8.82233C38.9893 4.13392 32.6304 1.5 26 1.5C19.3696 1.5 13.0107 4.13392 8.32233 8.82233C3.63392 13.5107 1 19.8696 1 26.5M51 26.5H1" stroke="#279472" stroke-width="2" stroke-linecap="round" stroke-linejoin="round"/>
<path d="M35.615 26.5C35.1427 35.6423 31.7753 44.3975 25.9997 51.5C20.224 44.3975 16.8566 35.6423 16.3843 26.5C16.8566 17.3577 20.224 8.60251 25.9997 1.5C31.7753 8.60251 35.1427 17.3577 35.615 26.5Z" stroke="#279472" stroke-width="2" stroke-linecap="round" stroke-linejoin="round"/>
</svg>
