<svg width="1200" height="574" viewBox="0 0 1200 574" fill="none" xmlns="http://www.w3.org/2000/svg">
<path d="M0 37.5V0H989.5H999H1005.5H1023.5H1200V573.5H0V37.5Z" fill="#BDF3B7"/>
<path d="M496.99 573.5L557.736 236.435H607.088L750.086 492.463L803.236 236.435H732.618H721.621L821.514 92.9092L861.762 37.5002L877.418 92.9092L925.99 236.435H847.528L788.051 573.5H738.697L598.336 325.702L551.822 573.5H496.99Z" fill="#B8E9B2"/>
<path d="M803.236 236.435L750.086 492.463L607.088 236.435H557.736L496.99 573.5H551.822L598.336 325.702L738.697 573.5H788.05L847.528 236.435M803.236 236.435H847.528M803.236 236.435H732.618H721.621L821.514 92.9092L861.762 37.5002L877.418 92.9092L925.99 236.435H847.528" stroke="#B8E9B2" stroke-linecap="round"/>
<path d="M352.279 235.342L159.991 573.49H229.268L379.549 294.496L429.411 573.49H496.701L425.667 235.342H352.279Z" fill="#B8E9B2" stroke="#B8E9B2" stroke-linecap="round"/>
</svg>
