<svg width="1181" height="225" viewBox="0 0 1181 225" fill="none" xmlns="http://www.w3.org/2000/svg">
<path d="M141.032 141L111.332 62.1C108.932 56 106.482 48.25 103.982 38.85C102.882 43.55 101.682 47.9 100.382 51.9C99.082 55.8 97.882 59.25 96.782 62.25L67.082 141H141.032ZM207.482 222H180.332C177.232 222 174.732 221.25 172.832 219.75C170.932 218.15 169.482 216.2 168.482 213.9L150.482 166.2H57.482L39.482 213.9C38.682 215.9 37.282 217.75 35.282 219.45C33.282 221.15 30.782 222 27.782 222H0.632031L86.282 5.99999H121.832L207.482 222ZM894.302 5.99999V222H876.452C873.752 222 871.452 221.55 869.552 220.65C867.652 219.65 865.852 218.05 864.152 215.85L745.502 63.45C745.802 66.35 746.002 69.25 746.102 72.15C746.302 74.95 746.402 77.55 746.402 79.95V222H715.502V5.99999H733.802C735.302 5.99999 736.552 6.09999 737.552 6.29999C738.652 6.39999 739.652 6.64999 740.552 7.04999C741.452 7.44999 742.302 8.04999 743.102 8.84998C743.902 9.64998 744.752 10.65 745.652 11.85L864.452 164.4C864.152 161.3 863.902 158.25 863.702 155.25C863.602 152.25 863.552 149.45 863.552 146.85V5.99999H894.302Z" fill="white"/>
<path d="M330.738 99C329.738 100.3 328.788 101.3 327.888 102C326.988 102.7 325.688 103.05 323.988 103.05C322.288 103.05 320.488 102.45 318.588 101.25C316.788 100.05 314.588 98.75 311.988 97.35C309.488 95.85 306.438 94.5 302.838 93.3C299.238 92.1 294.738 91.5 289.338 91.5C282.338 91.5 276.188 92.75 270.888 95.25C265.688 97.75 261.288 101.35 257.688 106.05C254.188 110.65 251.538 116.3 249.738 123C248.038 129.6 247.188 137.05 247.188 145.35C247.188 153.95 248.138 161.6 250.038 168.3C251.938 175 254.638 180.65 258.138 185.25C261.738 189.85 266.038 193.35 271.038 195.75C276.138 198.15 281.838 199.35 288.138 199.35C294.338 199.35 299.388 198.6 303.288 197.1C307.188 195.6 310.438 193.95 313.038 192.15C315.638 190.35 317.838 188.7 319.638 187.2C321.538 185.7 323.538 184.95 325.638 184.95C328.238 184.95 330.238 185.95 331.638 187.95L340.788 199.8C337.088 204.3 332.988 208.1 328.488 211.2C323.988 214.3 319.238 216.85 314.238 218.85C309.238 220.75 304.038 222.1 298.638 222.9C293.238 223.8 287.788 224.25 282.288 224.25C272.788 224.25 263.888 222.5 255.588 219C247.388 215.4 240.188 210.25 233.988 203.55C227.888 196.75 223.038 188.5 219.438 178.8C215.938 169 214.188 157.85 214.188 145.35C214.188 134.05 215.788 123.6 218.988 114C222.188 104.3 226.838 95.95 232.938 88.95C239.138 81.95 246.788 76.5 255.888 72.6C264.988 68.6 275.488 66.6 287.388 66.6C298.488 66.6 308.238 68.4 316.638 72C325.138 75.6 332.688 80.7 339.288 87.3L330.738 99ZM515.228 222H482.978V94.35H408.428V181.2C408.428 186.7 409.778 190.9 412.478 193.8C415.178 196.7 418.778 198.15 423.278 198.15C425.778 198.15 427.928 197.85 429.728 197.25C431.528 196.55 433.078 195.85 434.378 195.15C435.678 194.35 436.778 193.65 437.678 193.05C438.678 192.35 439.628 192 440.528 192C442.328 192 443.778 193 444.878 195L454.478 210.75C449.478 215.15 443.578 218.55 436.778 220.95C429.978 223.25 422.978 224.4 415.778 224.4C403.078 224.4 393.278 220.85 386.378 213.75C379.578 206.55 376.178 196.45 376.178 183.45V94.35H359.378C357.578 94.35 356.028 93.8 354.728 92.7C353.428 91.5 352.778 89.75 352.778 87.45V74.4L377.528 70.8L384.578 26.55C385.078 24.85 385.928 23.5 387.128 22.5C388.328 21.4 389.928 20.85 391.928 20.85H408.428V71.1H515.228V222ZM521.828 22.05C521.828 24.95 521.228 27.7 520.028 30.3C518.928 32.8 517.378 35.05 515.378 37.05C513.378 38.95 511.028 40.5 508.328 41.7C505.728 42.8 502.978 43.35 500.078 43.35C497.178 43.35 494.428 42.8 491.828 41.7C489.328 40.5 487.078 38.95 485.078 37.05C483.178 35.05 481.628 32.8 480.428 30.3C479.328 27.7 478.778 24.95 478.778 22.05C478.778 19.05 479.328 16.25 480.428 13.65C481.628 10.95 483.178 8.65 485.078 6.74999C487.078 4.74999 489.328 3.19999 491.828 2.09999C494.428 0.899992 497.178 0.299993 500.078 0.299993C502.978 0.299993 505.728 0.899992 508.328 2.09999C511.028 3.19999 513.378 4.74999 515.378 6.74999C517.378 8.65 518.928 10.95 520.028 13.65C521.228 16.25 521.828 19.05 521.828 22.05ZM690.686 69L629.186 222H600.086L538.586 69H565.136C567.636 69 569.686 69.65 571.286 70.95C572.986 72.15 574.086 73.6 574.586 75.3L608.486 164.4C609.886 168.6 611.136 172.75 612.236 176.85C613.336 180.95 614.286 185.1 615.086 189.3C615.886 185.1 616.836 181 617.936 177C619.136 172.9 620.436 168.7 621.836 164.4L656.336 75.3C656.936 73.5 658.036 72 659.636 70.8C661.236 69.6 663.186 69 665.486 69H690.686ZM1035.44 128.25C1035.44 122.85 1034.64 117.85 1033.04 113.25C1031.54 108.55 1029.29 104.5 1026.29 101.1C1023.29 97.6 1019.54 94.9 1015.04 93C1010.64 91 1005.54 90 999.738 90C988.038 90 978.838 93.35 972.138 100.05C965.438 106.75 961.188 116.15 959.388 128.25H1035.44ZM958.488 148.05C958.888 156.75 960.238 164.3 962.538 170.7C964.838 177 967.888 182.25 971.688 186.45C975.588 190.65 980.188 193.8 985.488 195.9C990.888 197.9 996.888 198.9 1003.49 198.9C1009.79 198.9 1015.24 198.2 1019.84 196.8C1024.44 195.3 1028.44 193.7 1031.84 192C1035.24 190.2 1038.14 188.6 1040.54 187.2C1042.94 185.7 1045.14 184.95 1047.14 184.95C1049.74 184.95 1051.74 185.95 1053.14 187.95L1062.29 199.8C1058.49 204.3 1054.19 208.1 1049.39 211.2C1044.59 214.3 1039.49 216.85 1034.09 218.85C1028.69 220.75 1023.14 222.1 1017.44 222.9C1011.74 223.8 1006.19 224.25 1000.79 224.25C990.188 224.25 980.338 222.5 971.238 219C962.238 215.4 954.388 210.15 947.688 203.25C941.088 196.35 935.888 187.8 932.088 177.6C928.388 167.4 926.538 155.65 926.538 142.35C926.538 131.75 928.188 121.85 931.488 112.65C934.888 103.45 939.688 95.45 945.888 88.65C952.188 81.85 959.788 76.5 968.688 72.6C977.688 68.6 987.838 66.6 999.138 66.6C1008.54 66.6 1017.24 68.15 1025.24 71.25C1033.24 74.25 1040.14 78.7 1045.94 84.6C1051.74 90.5 1056.24 97.75 1059.44 106.35C1062.74 114.85 1064.39 124.55 1064.39 135.45C1064.39 140.45 1063.84 143.8 1062.74 145.5C1061.64 147.2 1059.64 148.05 1056.74 148.05H958.488ZM1142.05 224.4C1129.35 224.4 1119.55 220.85 1112.65 213.75C1105.85 206.55 1102.45 196.45 1102.45 183.45V94.35H1085.65C1083.85 94.35 1082.3 93.8 1081 92.7C1079.7 91.5 1079.05 89.75 1079.05 87.45V74.4L1103.8 70.8L1110.85 26.55C1111.35 24.85 1112.2 23.5 1113.4 22.5C1114.6 21.4 1116.2 20.85 1118.2 20.85H1134.7V71.1H1177.15V94.35H1134.7V181.2C1134.7 186.7 1136.05 190.9 1138.75 193.8C1141.45 196.7 1145.05 198.15 1149.55 198.15C1152.05 198.15 1154.2 197.85 1156 197.25C1157.8 196.55 1159.35 195.85 1160.65 195.15C1161.95 194.35 1163.05 193.65 1163.95 193.05C1164.95 192.35 1165.9 192 1166.8 192C1168.6 192 1170.05 193 1171.15 195L1180.75 210.75C1175.75 215.15 1169.85 218.55 1163.05 220.95C1156.25 223.25 1149.25 224.4 1142.05 224.4Z" fill="#BDF3B7"/>
</svg>
