<svg width="48" height="49" viewBox="0 0 48 49" fill="none" xmlns="http://www.w3.org/2000/svg">
<g clip-path="url(#clip0_884_33771)">
<path d="M0 24.8096C0 11.5548 10.7452 0.80957 24 0.80957C37.2548 0.80957 48 11.5548 48 24.8096C48 38.0644 37.2548 48.8096 24 48.8096C10.7452 48.8096 0 38.0644 0 24.8096Z" fill="white"/>
<path fill-rule="evenodd" clip-rule="evenodd" d="M18.422 21.7778C17.8279 22.6329 17.5309 23.6626 17.5309 24.8688H17.5273C17.5273 26.3881 17.9594 27.5637 18.8235 28.3918C19.6876 29.2199 20.7929 29.634 22.1359 29.634C23.009 29.634 23.7435 29.5475 24.3375 29.3711C25.2791 29.1083 26.2386 28.4458 27.2179 27.3801C27.2881 27.4683 27.4105 27.6375 27.587 27.8931C27.7598 28.147 27.8858 28.3144 27.965 28.4044C28.0424 28.4908 28.1738 28.6312 28.3575 28.8221C28.5411 29.0147 28.7535 29.2163 28.9983 29.4251C29.2954 29.5475 29.5492 29.5295 29.758 29.3711C29.8804 29.2667 30.6653 28.588 32.1163 27.3279C32.2567 27.2235 32.3251 27.101 32.3251 26.9624C32.3251 26.84 32.2729 26.6996 32.1685 26.543L31.5673 25.7437C31.4448 25.578 31.3152 25.308 31.1892 24.93C31.056 24.5573 30.9912 24.1433 30.9912 23.6878V17.351C30.9912 17.2826 30.984 17.0594 30.966 16.6849C30.948 16.3105 30.9228 16.0639 30.8868 15.9504C30.8544 15.837 30.8004 15.6318 30.7283 15.3384C30.6599 15.0395 30.5843 14.8127 30.4943 14.6543C30.4097 14.4959 30.2891 14.3194 30.1397 14.1178C29.9903 13.918 29.83 13.729 29.6572 13.5543C28.5375 12.5246 26.9839 12.0098 24.9946 12.0098H24.3412C22.7894 12.0962 21.4302 12.5156 20.269 13.2663C19.1097 14.017 18.3806 15.1691 18.0836 16.7227C18.0656 16.7929 18.0566 16.8524 18.0566 16.9064C18.0566 17.1512 18.206 17.3078 18.5012 17.3798L21.513 17.7471C21.792 17.6949 21.9667 17.4932 22.0387 17.144C22.1593 16.5859 22.4293 16.1485 22.8488 15.8334C23.2682 15.5166 23.7669 15.3366 24.343 15.2826H24.5464C25.3331 15.2826 25.9091 15.5454 26.2746 16.0711C26.5176 16.4527 26.6436 17.2052 26.6436 18.3213V18.766C25.5779 18.8524 24.8074 18.9208 24.3393 18.9748C22.9604 19.1494 21.7992 19.4375 20.8577 19.8389C19.8262 20.2764 19.0161 20.9227 18.422 21.7778ZM22.5445 25.9813C22.2043 25.5672 22.0351 25.0236 22.0351 24.3431L22.0333 24.3449C22.0333 22.8435 22.8002 21.875 24.3375 21.4393C24.8596 21.3007 25.6283 21.2287 26.6418 21.2287V21.8822C26.6418 22.4403 26.6382 22.8435 26.6292 23.0883C26.6202 23.3332 26.568 23.6518 26.4726 24.0425C26.3754 24.4349 26.2314 24.7967 26.0406 25.1298C25.6391 25.8805 25.0702 26.3503 24.3394 26.543C24.3033 26.543 24.2367 26.552 24.1413 26.57C24.0441 26.5862 23.9721 26.5934 23.9181 26.5934C23.342 26.5934 22.8866 26.3899 22.5445 25.9813Z" fill="#221F1F"/>
<path d="M33.0308 32.7746C33.0668 32.7026 33.1208 32.6342 33.1874 32.564C33.6249 32.2687 34.0444 32.0671 34.4476 31.9627C35.1083 31.7899 35.7546 31.6926 36.3828 31.6746C36.5575 31.6566 36.7249 31.6674 36.8797 31.7016C37.6664 31.7737 38.1399 31.9033 38.2947 32.0977C38.3667 32.2003 38.3991 32.3569 38.3991 32.5658V32.7494C38.3991 33.3615 38.2335 34.0815 37.9022 34.9096C37.5692 35.7378 37.1065 36.4074 36.5161 36.9133C36.4261 36.9853 36.3486 37.0177 36.2784 37.0177C36.2424 37.0177 36.2064 37.0087 36.174 36.9925C36.066 36.9385 36.0426 36.8431 36.0948 36.7045C36.7429 35.1851 37.0633 34.1302 37.0633 33.5361C37.0633 33.3435 37.0273 33.203 36.9589 33.1166C36.7843 32.9096 36.2964 32.8034 35.4917 32.8034C35.1965 32.8034 34.8473 32.8214 34.4476 32.8574C34.0084 32.9114 33.6069 32.9618 33.2415 33.014C33.1334 33.014 33.0668 32.996 33.0308 32.96C32.9948 32.924 32.9876 32.8916 33.0056 32.8556C33.0056 32.8376 33.0128 32.8124 33.0308 32.7782V32.7746Z" fill="#221F1F"/>
<path d="M9.65361 32.3303C9.74002 32.1899 9.87864 32.1809 10.0713 32.3033C14.435 34.8344 19.184 36.1017 24.3164 36.1017C27.7369 36.1017 31.1159 35.4627 34.4517 34.1881L34.8298 34.0315C34.9954 33.9595 35.1124 33.9091 35.1826 33.8749C35.4454 33.7705 35.6507 33.8209 35.8001 34.0315C35.9477 34.2403 35.8991 34.4329 35.6561 34.6076C35.341 34.8344 34.9396 35.0972 34.4499 35.3925C32.9503 36.2836 31.2743 36.9731 29.4237 37.4627C27.5749 37.9488 25.7692 38.1954 24.005 38.1954C21.2813 38.1954 18.7069 37.7183 16.282 36.7678C13.8517 35.8173 11.6807 34.4761 9.75983 32.7479C9.65361 32.6633 9.59961 32.5733 9.59961 32.4869C9.59961 32.4329 9.61761 32.3825 9.65361 32.3303Z" fill="#221F1F"/>
</g>
<defs>
<clipPath id="clip0_884_33771">
<rect width="48" height="48" fill="white" transform="translate(0 0.80957)"/>
</clipPath>
</defs>
</svg>
