<svg width="49" height="49" viewBox="0 0 49 49" fill="none" xmlns="http://www.w3.org/2000/svg">
<g clip-path="url(#clip0_884_33780)">
<g clip-path="url(#clip1_884_33780)">
<path d="M0.5 24.8096C0.5 11.5548 11.2452 0.80957 24.5 0.80957C37.7548 0.80957 48.5 11.5548 48.5 24.8096C48.5 38.0644 37.7548 48.8096 24.5 48.8096C11.2452 48.8096 0.5 38.0644 0.5 24.8096Z" fill="white"/>
<path d="M19.7004 39.2094C22.3514 39.2094 24.5004 37.0604 24.5004 34.4094V29.6094H19.7004C17.0494 29.6094 14.9004 31.7585 14.9004 34.4094C14.9004 37.0604 17.0494 39.2094 19.7004 39.2094Z" fill="#8C8C8C"/>
<path d="M14.9004 24.8098C14.9004 22.1588 17.0494 20.0098 19.7004 20.0098H24.5004V29.6098H19.7004C17.0494 29.6098 14.9004 27.4607 14.9004 24.8098Z" fill="#818181"/>
<path d="M14.9004 15.2092C14.9004 12.5582 17.0494 10.4092 19.7004 10.4092H24.5004V20.0092H19.7004C17.0494 20.0092 14.9004 17.8601 14.9004 15.2092Z" fill="#7A7A7A"/>
<path d="M24.5 10.4092H29.3C31.951 10.4092 34.1 12.5582 34.1 15.2092C34.1 17.8601 31.951 20.0092 29.3 20.0092H24.5V10.4092Z" fill="#9B9B9B"/>
<path d="M34.1 24.8098C34.1 27.4607 31.951 29.6098 29.3 29.6098C26.649 29.6098 24.5 27.4607 24.5 24.8098C24.5 22.1588 26.649 20.0098 29.3 20.0098C31.951 20.0098 34.1 22.1588 34.1 24.8098Z" fill="#939393"/>
</g>
</g>
<defs>
<clipPath id="clip0_884_33780">
<rect width="48" height="48" fill="white" transform="translate(0.5 0.80957)"/>
</clipPath>
<clipPath id="clip1_884_33780">
<rect width="48" height="48" fill="white" transform="translate(0.5 0.80957)"/>
</clipPath>
</defs>
</svg>
