<svg width="49" height="49" viewBox="0 0 49 49" fill="none" xmlns="http://www.w3.org/2000/svg">
<path d="M0.333984 0.80957H48.334V48.8096H0.333984V0.80957Z" fill="#ECECEC"/>
<path d="M12.9552 40.9214L16.6284 38.6984C17.3371 39.9548 17.9817 41.0179 19.528 41.0179C21.0102 41.0179 21.9447 40.4381 21.9447 38.1828V22.8457H26.4555V38.2466C26.4555 42.9186 23.7169 45.0452 19.7214 45.0452C16.1129 45.0452 14.0183 43.1763 12.9551 40.921" fill="black"/>
<path d="M28.9062 40.4381L32.5791 38.3115C33.5459 39.8905 34.8026 41.0504 37.0256 41.0504C38.8947 41.0504 40.0865 40.1159 40.0865 38.8271C40.0865 37.2805 38.8622 36.7327 36.8 35.8308L35.6726 35.3471C32.4182 33.9619 30.2593 32.222 30.2593 28.5488C30.2593 25.1656 32.8369 22.5879 36.8646 22.5879C39.7323 22.5879 41.7944 23.5868 43.2764 26.1967L39.7643 28.452C38.991 27.0667 38.1535 26.519 36.8647 26.519C35.5437 26.519 34.7059 27.3567 34.7059 28.452C34.7059 29.8053 35.5437 30.3532 37.4767 31.191L38.6043 31.6743C42.4386 33.3176 44.5975 34.9929 44.5975 38.7626C44.5975 42.8226 41.4077 45.0456 37.1224 45.0456C32.9338 45.0456 30.2271 43.0481 28.9062 40.4381Z" fill="black"/>
</svg>
