<svg width="49" height="44" viewBox="0 0 49 44" fill="none" xmlns="http://www.w3.org/2000/svg">
<g clip-path="url(#clip0_884_33768)">
<path d="M39.6375 14.5552C39.1396 14.3849 38.6236 14.2239 38.0923 14.0715C38.1797 13.7176 38.2598 13.3682 38.3311 13.0248C39.5007 7.38537 38.736 2.84223 36.1245 1.34644C33.6204 -0.087826 29.5252 1.40763 25.3893 4.98273C24.9916 5.32651 24.5928 5.69049 24.1941 6.07194C23.9285 5.81956 23.6633 5.57567 23.3987 5.34238C19.0641 1.51965 14.7194 -0.0913054 12.1105 1.40882C9.60882 2.84724 8.86798 7.11822 9.92085 12.4627C10.0225 12.9789 10.1414 13.5061 10.2758 14.0421C9.66086 14.2155 9.06722 14.4003 8.49922 14.5969C3.41737 16.3567 0.171875 19.1148 0.171875 21.9756C0.171875 24.9303 3.65592 27.8938 8.94906 29.6908C9.36677 29.8326 9.80021 29.9667 10.2469 30.094C10.1019 30.6737 9.97578 31.2418 9.86993 31.7958C8.86601 37.0476 9.65 41.2176 12.145 42.647C14.7221 44.1231 19.0472 42.6058 23.2588 38.9493C23.5917 38.6602 23.9257 38.3537 24.2604 38.0324C24.6942 38.4473 25.1273 38.84 25.558 39.2083C29.6374 42.695 33.6665 44.103 36.1592 42.6696C38.7337 41.1893 39.5704 36.7096 38.4842 31.2594C38.4012 30.8432 38.3047 30.4179 38.1962 29.9851C38.5 29.8959 38.7982 29.8038 39.0889 29.7081C44.5916 27.8972 48.1719 24.9697 48.1719 21.9756C48.1719 19.1044 44.8217 16.3278 39.6375 14.5552ZM38.444 27.7749C38.1815 27.8612 37.9122 27.9446 37.6378 28.0255C37.0303 26.1153 36.2105 24.0841 35.2071 21.9855C36.1646 19.9369 36.9527 17.9317 37.5432 16.0339C38.0342 16.175 38.5108 16.3239 38.9701 16.481C43.4119 17.9998 46.1213 20.2453 46.1213 21.9756C46.1213 23.8186 43.1952 26.2112 38.444 27.7749ZM36.4726 31.655C36.9529 34.065 37.0215 36.2439 36.7034 37.9473C36.4175 39.4779 35.8425 40.4983 35.1317 40.907C33.619 41.7767 30.3841 40.6463 26.8953 37.6643C26.4954 37.3225 26.0926 36.9575 25.6884 36.5712C27.0409 35.102 28.3927 33.394 29.7119 31.497C32.0324 31.2925 34.2247 30.9581 36.2128 30.5017C36.3107 30.894 36.3976 31.2788 36.4726 31.655ZM16.5362 40.7567C15.0582 41.2752 13.8811 41.29 13.1696 40.8825C11.6555 40.0151 11.0261 36.667 11.8847 32.1757C11.983 31.6613 12.1001 31.133 12.235 30.5929C14.2013 31.0248 16.3775 31.3355 18.7035 31.5228C20.0317 33.379 21.4224 35.0852 22.824 36.5791C22.5178 36.8727 22.2128 37.1523 21.9094 37.4157C20.0471 39.0326 18.1809 40.1798 16.5362 40.7567ZM9.61224 27.7636C7.27171 26.969 5.33882 25.9363 4.01391 24.8094C2.8234 23.7967 2.22233 22.7914 2.22233 21.9756C2.22233 20.2395 4.82815 18.0252 9.17419 16.5202C9.70152 16.3375 10.2535 16.1654 10.8264 16.0038C11.4271 17.9444 12.215 19.9734 13.1658 22.0251C12.2027 24.1073 11.4036 26.1687 10.797 28.132C10.3886 28.0154 9.99296 27.8927 9.61224 27.7636ZM11.9332 12.0716C11.0311 7.49255 11.6302 4.03829 13.1378 3.1715C14.7436 2.24811 18.2946 3.56467 22.0372 6.86541C22.2764 7.07638 22.5166 7.29719 22.7574 7.52564C21.3628 9.01303 19.9847 10.7064 18.6684 12.5516C16.4109 12.7595 14.25 13.0933 12.2632 13.5404C12.1383 13.0413 12.0276 12.551 11.9332 12.0716ZM32.6382 17.1497C32.1633 16.3348 31.6757 15.5392 31.1786 14.7654C32.7101 14.9577 34.1774 15.2129 35.5554 15.5253C35.1417 16.8422 34.6261 18.2191 34.0191 19.6307C33.5837 18.8096 33.1232 17.9818 32.6382 17.1497ZM24.1948 8.98121C25.1406 9.99897 26.0878 11.1353 27.0194 12.3682C26.0806 12.3241 25.1302 12.3012 24.1719 12.3012C23.2226 12.3012 22.2792 12.3236 21.3462 12.3669C22.2788 11.1455 23.2342 10.0107 24.1948 8.98121ZM15.6972 17.1638C15.2228 17.9809 14.7708 18.8043 14.3422 19.6291C13.7451 18.2225 13.2343 16.8393 12.817 15.5038C14.1865 15.1994 15.6469 14.9505 17.1687 14.7618C16.6646 15.5428 16.173 16.3444 15.6972 17.1638ZM17.2125 29.3346C15.6402 29.1604 14.1579 28.9243 12.7887 28.6283C13.2127 27.2689 13.7348 25.8562 14.3446 24.4193C14.7742 25.2436 15.228 26.0672 15.7053 26.8862C16.1916 27.7205 16.6954 28.5377 17.2125 29.3346ZM24.2515 35.1135C23.2796 34.072 22.3102 32.9199 21.3635 31.6807C22.2826 31.7165 23.2196 31.7348 24.1719 31.7348C25.1502 31.7348 26.1174 31.7129 27.0694 31.6708C26.1347 32.9324 25.1909 34.0863 24.2515 35.1135ZM34.0387 24.3461C34.6802 25.7985 35.2211 27.2038 35.6505 28.5401C34.2588 28.8554 32.7561 29.1094 31.1729 29.2981C31.6712 28.5138 32.1631 27.7046 32.6464 26.8722C33.1354 26.03 33.5997 25.1865 34.0387 24.3461ZM30.8702 25.8547C30.1199 27.1469 29.3496 28.3804 28.5676 29.5448C27.1432 29.646 25.6717 29.6981 24.1719 29.6981C22.6781 29.6981 21.2252 29.652 19.826 29.5618C19.0124 28.3821 18.2254 27.1449 17.4798 25.8658C16.7363 24.5901 16.0521 23.3037 15.4319 22.0245C16.0519 20.7423 16.7345 19.4544 17.4738 18.181L17.4736 18.1813C18.2149 16.9045 18.995 15.6733 19.8011 14.501C21.2286 14.3938 22.6924 14.3379 24.1718 14.3379C25.6578 14.3379 27.1236 14.3943 28.5507 14.5024C29.3445 15.6661 30.1193 16.8933 30.8635 18.1702C31.6161 19.4615 32.3075 20.7408 32.9327 21.9955C32.3094 23.2718 31.6195 24.564 30.8702 25.8547ZM35.1003 3.11091C36.7076 4.03159 37.3327 7.74468 36.3228 12.6137C36.2584 12.9244 36.1858 13.2408 36.1071 13.5615C34.1157 13.1051 31.9532 12.7655 29.6891 12.5545C28.3702 10.689 27.0034 8.99301 25.6315 7.52471C26.0004 7.17228 26.3687 6.83622 26.7355 6.51909C30.2792 3.45596 33.5912 2.24658 35.1003 3.11091ZM24.1719 17.7183C26.5391 17.7183 28.4581 19.6243 28.4581 21.9756C28.4581 24.3268 26.5391 26.2329 24.1719 26.2329C21.8047 26.2329 19.8856 24.3268 19.8856 21.9756C19.8856 19.6243 21.8047 17.7183 24.1719 17.7183Z" fill="white"/>
</g>
<defs>
<clipPath id="clip0_884_33768">
<rect width="48" height="42.4615" fill="white" transform="translate(0.166016 0.80957)"/>
</clipPath>
</defs>
</svg>
