<svg width="48" height="47" viewBox="0 0 48 47" fill="none" xmlns="http://www.w3.org/2000/svg">
<g clip-path="url(#clip0_884_33762)">
<path d="M33.2609 32.6335C35.0323 32.4502 36.3761 30.9231 36.315 29.0906C36.2539 27.2581 34.7269 25.792 32.8944 25.792H32.7722C30.8787 25.8531 29.4127 27.4413 29.4738 29.3349C29.5349 30.2512 29.9014 31.0453 30.4511 31.595C28.3743 35.6877 25.1981 38.6808 20.4337 41.1853C17.1963 42.8956 13.8368 43.5065 10.4773 43.0789C7.7286 42.7124 5.59073 41.4907 4.24692 39.4749C2.2923 36.4818 2.10905 33.2443 3.75827 30.0069C4.91883 27.6857 6.75129 25.9753 7.91184 25.1201C7.66752 24.326 7.30102 22.9822 7.11778 22.0048C-1.73911 28.4187 -0.822884 37.0926 1.86472 41.1853C3.88043 44.2395 7.97293 46.1331 12.493 46.1331C13.7146 46.1331 14.9363 46.0109 16.1579 45.7055C23.9764 44.1784 29.9014 39.536 33.2609 32.6335ZM44.0113 25.059C39.3691 19.6225 32.5279 16.6294 24.7094 16.6294H23.7321C23.1823 15.5299 22.0218 14.7969 20.7391 14.7969H20.6169C18.7234 14.858 17.2574 16.4462 17.3185 18.3398C17.3796 20.1723 18.9066 21.6383 20.7391 21.6383H20.8612C22.205 21.5772 23.3656 20.7221 23.8543 19.5615H24.9537C29.596 19.5615 33.9939 20.9053 37.9642 23.5319C41.0183 25.5477 43.2173 28.1743 44.4389 31.3507C45.4773 33.9163 45.4162 36.4207 44.3167 38.5587C42.6064 41.7961 39.7356 43.5676 35.9485 43.5676C33.5052 43.5676 31.1841 42.8345 29.9625 42.2848C29.2906 42.8956 28.0689 43.873 27.2138 44.4838C29.8403 45.7055 32.5279 46.3774 35.0933 46.3774C40.9572 46.3774 45.294 43.14 46.9433 39.9025C48.7146 36.3596 48.5925 30.2512 44.0113 25.059ZM12.9817 33.6719C13.0427 35.5044 14.5698 36.9705 16.4022 36.9705H16.5244C18.418 36.9094 19.8839 35.3212 19.8228 33.4276C19.7618 31.5951 18.2347 30.129 16.4022 30.129H16.2801C16.1579 30.129 15.9747 30.129 15.8525 30.1901C13.3481 26.0364 12.3097 21.5162 12.6762 16.6294C12.9206 12.9644 14.1422 9.78798 16.2801 7.16135C18.0515 4.90124 21.4721 3.80172 23.7932 3.74064C30.2679 3.61847 33.0166 11.6816 33.1998 14.9191C33.9939 15.1023 35.3377 15.5299 36.2539 15.8353C35.5209 5.93967 29.4127 0.808594 23.5488 0.808594C18.0515 0.808594 12.9817 4.77907 10.9659 10.6432C8.15617 18.4619 9.98863 25.9753 13.4092 31.9005C13.1038 32.3281 12.9206 33 12.9817 33.6719Z" fill="white"/>
</g>
<defs>
<clipPath id="clip0_884_33762">
<rect width="48" height="45.75" fill="white" transform="translate(0 0.80957)"/>
</clipPath>
</defs>
</svg>
