<svg width="49" height="49" viewBox="0 0 49 49" fill="none" xmlns="http://www.w3.org/2000/svg">
<g clip-path="url(#clip0_884_33774)">
<path d="M0.833984 24.8096V48.8096H24.834H48.834V24.8096V0.80957H24.834H0.833984V24.8096Z" fill="#C3C3C3"/>
<path d="M11.4486 24.9684L11.4334 26.9341L14.5572 26.9341H17.681V35.8103V44.6865H19.8905H22.1V35.8103V26.9341H25.2238H28.3477V25.0065C28.3477 23.9399 28.3248 23.0484 28.2943 23.0256C28.2715 22.9951 24.4696 22.9799 19.86 22.9875L11.4715 23.0103L11.4486 24.9684Z" fill="white"/>
<path d="M39.565 22.9553C40.784 23.2601 41.7135 23.801 42.5669 24.6848C43.0088 25.1572 43.664 26.0182 43.7173 26.2239C43.7326 26.2848 41.645 27.6867 40.3802 28.4715C40.3345 28.502 40.1516 28.3039 39.9459 27.9991C39.3288 27.1001 38.6812 26.7115 37.6907 26.6429C36.2354 26.5439 35.2983 27.3058 35.3059 28.5782C35.3059 28.9515 35.3592 29.1725 35.5116 29.4772C35.8316 30.1401 36.4259 30.5363 38.2926 31.3439C41.7288 32.822 43.1993 33.7972 44.1135 35.1839C45.1345 36.7305 45.3631 39.1991 44.6697 41.0353C43.9078 43.0315 42.0183 44.3877 39.3592 44.8372C38.5364 44.982 36.5859 44.9591 35.7021 44.7991C33.7745 44.4563 31.9459 43.5039 30.8183 42.2544C30.3764 41.7667 29.5154 40.4944 29.5688 40.4029C29.5916 40.3725 29.7897 40.2506 30.0107 40.121C30.224 39.9991 31.0316 39.5344 31.7935 39.0925L33.1726 38.2925L33.4621 38.7191C33.8659 39.3363 34.7497 40.182 35.2831 40.4639C36.8145 41.2715 38.9173 41.1572 39.9535 40.2277C40.3954 39.8239 40.5783 39.4048 40.5783 38.7877C40.5783 38.2315 40.5097 37.9877 40.2202 37.5686C39.8469 37.0353 39.085 36.5858 36.9212 35.6486C34.445 34.582 33.3783 33.9191 32.4031 32.8677C31.8393 32.2582 31.3059 31.2829 31.085 30.4677C30.9021 29.7896 30.8564 28.0905 31.0012 27.4048C31.5116 25.0125 33.3173 23.3439 35.9231 22.8486C36.7688 22.6886 38.7345 22.7496 39.565 22.9553Z" fill="white"/>
</g>
<defs>
<clipPath id="clip0_884_33774">
<rect width="48" height="48" fill="white" transform="translate(0.833984 0.80957)"/>
</clipPath>
</defs>
</svg>
