<svg width="1200" height="575" viewBox="0 0 1200 575" fill="none" xmlns="http://www.w3.org/2000/svg">
<path d="M0.00976562 50C0.00976562 43.3726 5.38235 38 12.0098 38H587.5H926.539C928.484 38 930.399 37.5274 932.121 36.6229L988.5 7L992.511 4.59343C993.169 4.19872 993.863 3.868 994.584 3.60583L997.962 2.37757C998.652 2.12639 999.365 1.9392 1000.09 1.81837L1005 1L1011.5 0.500301L1188.01 0.500019C1194.64 0.500009 1200.01 5.87259 1200.01 12.5V562C1200.01 568.627 1194.64 574 1188.01 574H12.0098C5.38234 574 0.00976562 568.627 0.00976562 562V50Z" fill="#BDF3B7"/>
<path d="M497.021 573.882L557.731 237.017C557.739 236.969 557.781 236.935 557.829 236.935H607.039C607.075 236.935 607.109 236.954 607.126 236.986L749.965 492.729C750.01 492.81 750.132 492.791 750.151 492.701L803.246 236.935H732.628H721.822C721.741 236.935 721.694 236.844 721.74 236.777L821.524 93.4092L861.166 38.8339C861.411 38.4961 861.938 38.59 862.052 38.9918L877.428 93.4092L925.955 236.802C925.977 236.867 925.929 236.935 925.861 236.935H847.537L788.075 573.917C788.066 573.965 788.025 574 787.976 574H738.765C738.729 574 738.696 573.981 738.678 573.949L598.481 326.44C598.435 326.359 598.313 326.379 598.295 326.471L551.847 573.918C551.838 573.966 551.797 574 551.749 574H497.12C497.057 574 497.01 573.944 497.021 573.882Z" fill="#B8E9B2"/>
<path d="M803.246 236.935L750.151 492.701C750.132 492.791 750.01 492.81 749.965 492.729L607.126 236.986C607.109 236.954 607.075 236.935 607.039 236.935H557.829C557.781 236.935 557.739 236.969 557.731 237.017L497.021 573.882C497.01 573.944 497.057 574 497.12 574H551.749C551.797 574 551.838 573.966 551.847 573.918L598.295 326.471C598.313 326.379 598.435 326.359 598.481 326.44L738.678 573.949C738.696 573.981 738.729 574 738.765 574H787.976C788.025 574 788.066 573.965 788.075 573.917L847.537 236.935M803.246 236.935H847.537M803.246 236.935H732.628H721.822C721.741 236.935 721.694 236.844 721.74 236.777L821.524 93.4092L861.166 38.8339C861.411 38.4961 861.938 38.59 862.052 38.9918L877.428 93.4092L925.955 236.802C925.977 236.867 925.929 236.935 925.861 236.935H847.537" stroke="#B8E9B2" stroke-linecap="round"/>
<path d="M352.26 235.892L160.086 573.841C160.048 573.907 160.096 573.99 160.173 573.99H229.218C229.255 573.99 229.289 573.97 229.306 573.938L379.423 295.249C379.468 295.165 379.593 295.185 379.61 295.278L429.406 573.908C429.415 573.955 429.456 573.99 429.505 573.99H496.587C496.651 573.99 496.698 573.932 496.685 573.87L425.694 235.921C425.684 235.875 425.643 235.842 425.596 235.842H352.347C352.311 235.842 352.278 235.861 352.26 235.892Z" fill="#B8E9B2" stroke="#B8E9B2" stroke-linecap="round"/>
</svg>
