<svg width="44" height="33" viewBox="0 0 44 33" fill="none" xmlns="http://www.w3.org/2000/svg">
<path d="M19.5346 31.0698L22.7585 11.7944C22.7752 11.6944 22.8617 11.6212 22.9631 11.6212H25.3369C25.4144 11.6212 25.4855 11.6644 25.5211 11.7332L32.9408 26.0472C33.0313 26.2219 33.2915 26.1842 33.3288 25.9909L36.0972 11.6212H32.2687H32.0535C31.8891 11.6212 31.79 11.4391 31.8792 11.3011L37.0882 3.23684L37.9881 1.9019C38.487 1.1618 39.6256 1.35531 39.852 2.21868L40.119 3.23684L42.6676 11.3515C42.7096 11.4852 42.6098 11.6212 42.4697 11.6212H38.4985L35.3024 31.1376C35.286 31.2379 35.1993 31.3115 35.0977 31.3115H32.7236C32.6465 31.3115 32.5758 31.2688 32.5399 31.2006L25.2721 17.3752C25.18 17.1999 24.918 17.2411 24.884 17.4362L22.4968 31.1396C22.4795 31.239 22.3932 31.3115 22.2924 31.3115H19.7392C19.611 31.3115 19.5134 31.1963 19.5346 31.0698Z" fill="#222A2E"/>
<path d="M36.0972 11.6212L33.3288 25.9909C33.2915 26.1842 33.0313 26.2219 32.9408 26.0472L25.5211 11.7332C25.4855 11.6644 25.4144 11.6212 25.3369 11.6212H22.9631C22.8617 11.6212 22.7752 11.6944 22.7585 11.7944L19.5346 31.0698C19.5134 31.1963 19.611 31.3115 19.7392 31.3115H22.2924C22.3932 31.3115 22.4795 31.239 22.4968 31.1396L24.884 17.4362C24.918 17.2411 25.18 17.1999 25.2721 17.3752L32.5399 31.2006C32.5758 31.2688 32.6465 31.3115 32.7236 31.3115H35.0977C35.1993 31.3115 35.286 31.2379 35.3024 31.1376L38.4985 11.6212M36.0972 11.6212H38.4985M36.0972 11.6212H32.2687H32.0535C31.8891 11.6212 31.79 11.4391 31.8792 11.3011L37.0882 3.23684L37.9881 1.9019C38.487 1.1618 39.6256 1.35531 39.852 2.21868L40.119 3.23684L42.6676 11.3515C42.7096 11.4852 42.6098 11.6212 42.4697 11.6212H38.4985" stroke="#222A2E" stroke-width="2.07507" stroke-linecap="round"/>
<path d="M11.6099 11.7048L1.41092 31.0066C1.3379 31.1448 1.43809 31.3111 1.59439 31.3111H4.8753C4.95387 31.3111 5.0257 31.2667 5.06086 31.1964L12.8601 15.6142C12.9501 15.4345 13.2174 15.4748 13.2504 15.6731L15.8185 31.1376C15.8351 31.2377 15.9217 31.3111 16.0232 31.3111H19.2412C19.3717 31.3111 19.4698 31.1919 19.4448 31.0638L15.6772 11.762C15.6582 11.6646 15.5728 11.5942 15.4735 11.5942H11.7933C11.7164 11.5942 11.6458 11.6368 11.6099 11.7048Z" fill="#222A2E" stroke="#222A2E" stroke-width="2.07507" stroke-linecap="round"/>
</svg>
